<svg width="25" height="24" viewBox="0 0 25 24" fill="none" xmlns="http://www.w3.org/2000/svg">
<path fill-rule="evenodd" clip-rule="evenodd" d="M6.40719 3.24218C6.40719 2.00386 7.35425 1 8.52252 1H16.1377C17.306 1 18.253 2.00386 18.253 3.24218C18.253 4.48051 17.306 5.48437 16.1377 5.48437H8.52252C7.35425 5.48437 6.40719 4.48051 6.40719 3.24218ZM8.52252 2.79375C8.28886 2.79375 8.09945 2.99452 8.09945 3.24218C8.09945 3.48985 8.28886 3.69062 8.52252 3.69062H16.1377C16.3713 3.69062 16.5608 3.48985 16.5608 3.24218C16.5608 2.99452 16.3713 2.79375 16.1377 2.79375H8.52252Z" fill="currentColor"/>
<path fill-rule="evenodd" clip-rule="evenodd" d="M7.37239 2.67244C7.296 2.84543 7.25332 3.03848 7.25332 3.2421C7.25332 3.73296 7.50133 4.16241 7.87177 4.39736C6.70213 4.96228 5.88908 6.21231 5.88908 7.66363V8.57723H18.747V7.66363C18.747 6.21793 17.9403 4.97198 16.7779 4.40397C17.1542 4.17052 17.4069 3.73759 17.4069 3.2421C17.4069 3.04351 17.3663 2.85496 17.2934 2.68529C19.1396 3.49067 20.4393 5.41626 20.4393 7.66363V8.75016C22.5604 9.39406 23.9399 11.7395 23.3715 14.1492L21.8493 20.6033C21.3785 22.5995 19.6863 24 17.745 24H7.25489C5.31358 24 3.62138 22.5995 3.15055 20.6033L1.62833 14.1492C1.06568 11.7636 2.11173 9.44102 4.19682 8.77001L4.19682 7.66363C4.19682 5.40423 5.51049 3.47005 7.37239 2.67244ZM19.2672 10.371H5.73266C4.08126 10.371 2.86954 12.016 3.27006 13.7142L4.79228 20.1682C5.07478 21.366 6.0901 22.2063 7.25489 22.2063H17.745C18.9098 22.2063 19.9251 21.366 20.2076 20.1682L21.7298 13.7142C22.1303 12.016 20.9186 10.371 19.2672 10.371Z" fill="currentColor"/>
<path fill-rule="evenodd" clip-rule="evenodd" d="M9.3 13.6592C9.74183 13.6592 10.1 13.995 10.1 14.4092V18.9092C10.1 19.3234 9.74183 19.6592 9.3 19.6592C8.85817 19.6592 8.5 19.3234 8.5 18.9092V14.4092C8.5 13.995 8.85817 13.6592 9.3 13.6592Z" fill="currentColor"/>
<path fill-rule="evenodd" clip-rule="evenodd" d="M12.5 13.6592C12.9418 13.6592 13.3 13.995 13.3 14.4092V18.9092C13.3 19.3234 12.9418 19.6592 12.5 19.6592C12.0582 19.6592 11.7 19.3234 11.7 18.9092V14.4092C11.7 13.995 12.0582 13.6592 12.5 13.6592Z" fill="currentColor"/>
<path fill-rule="evenodd" clip-rule="evenodd" d="M15.7 13.6592C16.1418 13.6592 16.5 13.995 16.5 14.4092V18.9092C16.5 19.3234 16.1418 19.6592 15.7 19.6592C15.2582 19.6592 14.9 19.3234 14.9 18.9092V14.4092C14.9 13.995 15.2582 13.6592 15.7 13.6592Z" fill="currentColor"/>
</svg>
