<svg width="24" height="24" viewBox="0 0 24 24" fill="none" xmlns="http://www.w3.org/2000/svg">
<path d="M4.5 13.5H19.5L17.156 22H6.8445L4.5 13.5ZM19.5 13.5H4.5C4.5 10.75 7.25 9.5 7.25 9.5C7.25 8.5 8.25 5.5 12 5.5C15.75 5.5 16.75 8.5 16.75 9.5C16.75 9.5 19.5 10.75 19.5 13.5Z" stroke="currentColor" stroke-width="2" stroke-linecap="round" stroke-linejoin="round"/>
<path d="M3 13.5H21" stroke="currentColor" stroke-width="2" stroke-linecap="round"/>
<path d="M14 6C14 5.46957 13.7893 4.96086 13.4142 4.58579C13.0391 4.21071 12.5304 4 12 4C11.4696 4 10.9609 4.21071 10.5858 4.58579C10.2107 4.96086 10 5.46957 10 6" stroke="currentColor" stroke-width="2"/>
<path d="M12 4L14 2" stroke="currentColor" stroke-width="2" stroke-linecap="round"/>
<path d="M14 13.5V22M10 13.5V22V13.5Z" stroke="currentColor" stroke-width="2"/>
</svg>
