<svg width="44" height="24" viewBox="0 0 44 24" fill="none" xmlns="http://www.w3.org/2000/svg">
<path fill-rule="evenodd" clip-rule="evenodd" d="M15.9073 3.24218C15.9073 2.00386 16.8543 1 18.0226 1H25.6378C26.806 1 27.7531 2.00386 27.7531 3.24218C27.7531 4.48051 26.806 5.48437 25.6378 5.48437H18.0226C16.8543 5.48437 15.9073 4.48051 15.9073 3.24218ZM18.0226 2.79375C17.7889 2.79375 17.5995 2.99452 17.5995 3.24218C17.5995 3.48985 17.7889 3.69062 18.0226 3.69062H25.6378C25.8714 3.69062 26.0608 3.48985 26.0608 3.24218C26.0608 2.99452 25.8714 2.79375 25.6378 2.79375H18.0226Z" fill="black"/>
<path fill-rule="evenodd" clip-rule="evenodd" d="M16.8724 2.67244C16.7961 2.84543 16.7534 3.03848 16.7534 3.2421C16.7534 3.73296 17.0014 4.16241 17.3718 4.39736C16.2022 4.96228 15.3891 6.21231 15.3891 7.66363V8.57723H28.2471V7.66363C28.2471 6.21793 27.4403 4.97198 26.278 4.40397C26.6542 4.17052 26.907 3.73759 26.907 3.2421C26.907 3.04351 26.8664 2.85496 26.7935 2.68529C28.6396 3.49067 29.9393 5.41626 29.9393 7.66363V8.75016C32.0605 9.39406 33.4399 11.7395 32.8716 14.1492L31.3494 20.6033C30.8785 22.5995 29.1863 24 27.245 24H16.7549C14.8136 24 13.1214 22.5995 12.6506 20.6033L11.1284 14.1492C10.5657 11.7636 11.6118 9.44102 13.6969 8.77001L13.6969 7.66363C13.6969 5.40423 15.0106 3.47005 16.8724 2.67244ZM28.7672 10.371H15.2327C13.5813 10.371 12.3696 12.016 12.7701 13.7142L14.2923 20.1682C14.5748 21.366 15.5902 22.2063 16.7549 22.2063H27.245C28.4098 22.2063 29.4251 21.366 29.7076 20.1682L31.2299 13.7142C31.6304 12.016 30.4187 10.371 28.7672 10.371Z" fill="black"/>
<path fill-rule="evenodd" clip-rule="evenodd" d="M18.8 13.6594C19.2418 13.6594 19.6 13.9952 19.6 14.4094V18.9094C19.6 19.3236 19.2418 19.6594 18.8 19.6594C18.3582 19.6594 18 19.3236 18 18.9094V14.4094C18 13.9952 18.3582 13.6594 18.8 13.6594Z" fill="#7E004A"/>
<path fill-rule="evenodd" clip-rule="evenodd" d="M22 13.6594C22.4418 13.6594 22.8 13.9952 22.8 14.4094V18.9094C22.8 19.3236 22.4418 19.6594 22 19.6594C21.5582 19.6594 21.2 19.3236 21.2 18.9094V14.4094C21.2 13.9952 21.5582 13.6594 22 13.6594Z" fill="#7E004A"/>
<path fill-rule="evenodd" clip-rule="evenodd" d="M25.2 13.6594C25.6418 13.6594 26 13.9952 26 14.4094V18.9094C26 19.3236 25.6418 19.6594 25.2 19.6594C24.7582 19.6594 24.4 19.3236 24.4 18.9094V14.4094C24.4 13.9952 24.7582 13.6594 25.2 13.6594Z" fill="#7E004A"/>
</svg>
