<svg width="24" height="24" viewBox="0 0 24 24" fill="none" xmlns="http://www.w3.org/2000/svg">
<path fill-rule="evenodd" clip-rule="evenodd" d="M7.49375 5.65727C7.49375 4.74198 8.19376 4 9.05726 4H14.6859C15.5494 4 16.2494 4.74198 16.2494 5.65727C16.2494 6.57255 15.5494 7.31453 14.6859 7.31453H9.05726C8.19376 7.31453 7.49375 6.57255 7.49375 5.65727ZM9.05726 5.32581C8.88456 5.32581 8.74455 5.47421 8.74455 5.65727C8.74455 5.84032 8.88456 5.98872 9.05726 5.98872H14.6859C14.8586 5.98872 14.9986 5.84032 14.9986 5.65727C14.9986 5.47421 14.8586 5.32581 14.6859 5.32581H9.05726Z" fill="black"/>
<path fill-rule="evenodd" clip-rule="evenodd" d="M8.20716 5.23615C8.1507 5.36401 8.11915 5.5067 8.11915 5.65721C8.11915 6.02001 8.30247 6.33744 8.57627 6.51109C7.71175 6.92864 7.11081 7.85258 7.11081 8.92529V9.60056H16.6145V8.92529C16.6145 7.85673 16.0182 6.93581 15.1591 6.51598C15.4372 6.34343 15.624 6.02344 15.624 5.65721C15.624 5.51042 15.594 5.37106 15.5401 5.24565C16.9046 5.84093 17.8653 7.2642 17.8653 8.92529V9.72838C19.4331 10.2043 20.4527 11.9379 20.0326 13.719L18.9075 18.4894C18.5595 19.9649 17.3087 21 15.8738 21H8.12031C6.68543 21 5.43468 19.9649 5.08667 18.4894L3.96155 13.719C3.54568 11.9557 4.31885 10.239 5.86 9.74305L5.86 8.92529C5.86 7.2553 6.83097 5.82569 8.20716 5.23615ZM16.999 10.9264H6.99519C5.77459 10.9264 4.87897 12.1423 5.17501 13.3974L6.30013 18.1678C6.50893 19.0531 7.25938 19.6742 8.12031 19.6742H15.8738C16.7348 19.6742 17.4852 19.0531 17.694 18.1678L18.8192 13.3974C19.1152 12.1423 18.2196 10.9264 16.999 10.9264Z" fill="black"/>
<path fill-rule="evenodd" clip-rule="evenodd" d="M9.63183 13.3569C9.9584 13.3569 10.2231 13.6051 10.2231 13.9113V17.2374C10.2231 17.5435 9.9584 17.7917 9.63183 17.7917C9.30526 17.7917 9.04053 17.5435 9.04053 17.2374V13.9113C9.04053 13.6051 9.30526 13.3569 9.63183 13.3569Z" fill="#7E004A"/>
<path fill-rule="evenodd" clip-rule="evenodd" d="M11.997 13.3569C12.3236 13.3569 12.5884 13.6051 12.5884 13.9113V17.2374C12.5884 17.5435 12.3236 17.7917 11.997 17.7917C11.6705 17.7917 11.4057 17.5435 11.4057 17.2374V13.9113C11.4057 13.6051 11.6705 13.3569 11.997 13.3569Z" fill="#7E004A"/>
<path fill-rule="evenodd" clip-rule="evenodd" d="M14.3623 13.3569C14.6888 13.3569 14.9536 13.6051 14.9536 13.9113V17.2374C14.9536 17.5435 14.6888 17.7917 14.3623 17.7917C14.0357 17.7917 13.771 17.5435 13.771 17.2374V13.9113C13.771 13.6051 14.0357 13.3569 14.3623 13.3569Z" fill="#7E004A"/>
</svg>
