<svg width="24" height="24" viewBox="0 0 24 24" fill="none" xmlns="http://www.w3.org/2000/svg">
<path fill-rule="evenodd" clip-rule="evenodd" d="M11.338 2.0411C10.3193 2.18866 9.43823 2.59392 8.64316 3.28074L8.27795 3.59623L7.97116 3.53219C6.91221 3.31102 5.80815 3.45867 4.78719 3.95804C3.30268 4.68411 2.27796 6.08066 2.04016 7.70172C1.95809 8.26124 2.0058 9.14797 2.14683 9.68552C2.28374 10.2074 2.57826 10.845 2.88994 11.2945C3.2883 11.8689 4.04982 12.5451 4.62918 12.8388L4.81958 12.9353V16.5203C4.81958 20.4143 4.81564 20.3462 5.07082 20.8482C5.23085 21.1631 5.61994 21.5585 5.93381 21.7252C6.47473 22.0127 6.19339 21.9999 11.9876 21.9999C17.7819 21.9999 17.5006 22.0127 18.0415 21.7252C18.3554 21.5585 18.7444 21.1631 18.9045 20.8482C19.1597 20.3462 19.1557 20.4143 19.1557 16.5202V12.935L19.3685 12.8266C20.6398 12.179 21.6205 10.8488 21.9407 9.33818C22.0288 8.92256 22.0165 7.84906 21.9186 7.3956C21.508 5.49549 20.0637 4.02414 18.1391 3.54509C17.6234 3.41674 16.4825 3.40503 16.0064 3.52321L15.702 3.59878L15.3776 3.31683C14.7724 2.79062 14.2587 2.49165 13.5568 2.25722C12.8592 2.02421 12.0193 1.94239 11.338 2.0411ZM12.5253 3.46814C12.6854 3.494 12.9677 3.56537 13.1525 3.62669C14.0828 3.93553 14.9542 4.76125 15.3226 5.68307C15.5099 6.15167 15.7125 6.32349 16.078 6.32349C16.4248 6.32349 16.7286 6.0435 16.769 5.68687C16.7866 5.53104 16.7642 5.42578 16.6679 5.21189C16.5999 5.06075 16.5572 4.92408 16.5732 4.90819C16.631 4.85062 17.0925 4.84057 17.4539 4.88903C19.7473 5.19675 21.1491 7.4897 20.3615 9.64546C20.0307 10.551 19.2602 11.3579 18.3897 11.7105C18.0256 11.8581 17.9121 11.9363 17.8206 12.1027C17.7511 12.2292 17.7425 12.5839 17.7221 16.1794C17.7 20.0697 17.6986 20.1191 17.6073 20.2409C17.5565 20.3087 17.4593 20.4057 17.3912 20.4563C17.2679 20.5481 17.2504 20.5484 11.9876 20.5484C6.7249 20.5484 6.70738 20.5481 6.58404 20.4563C6.31582 20.2567 6.2768 20.1571 6.26045 19.6303L6.24531 17.1427L11.0396 17.1309C15.8028 17.1193 15.8347 17.1186 15.9576 17.0271C16.1927 16.8521 16.2661 16.7094 16.2661 16.4269C16.2661 16.1445 16.1927 16.0018 15.9576 15.8268C15.8347 15.7353 15.8027 15.7346 11.0436 15.7229L6.25319 15.7111V15.0238C6.25319 12.4063 6.25082 12.3315 6.1614 12.1474C6.05706 11.9325 5.97073 11.8666 5.59436 11.7141C5.00604 11.4758 4.35827 10.9398 3.99149 10.3877C2.48216 8.11623 3.99369 5.06553 6.72835 4.86401C7.19454 4.82967 7.43785 4.87031 7.39386 4.97518C7.22397 5.38009 7.18778 5.554 7.23611 5.73292C7.33073 6.0832 7.711 6.32612 8.06197 6.26051C8.30393 6.21522 8.49021 6.02858 8.65656 5.66463C8.94247 5.03918 9.38909 4.47367 9.88212 4.11271C10.6233 3.57006 11.6326 3.32397 12.5253 3.46814Z" fill="currentColor" stroke="currentColor" stroke-width="0.5"/>
</svg>
