<svg width="24" height="24" viewBox="0 0 24 24" fill="none" xmlns="http://www.w3.org/2000/svg">
<path fill-rule="evenodd" clip-rule="evenodd" d="M8.88498 0.982182C8.41373 1.0556 7.82759 1.27397 7.36509 1.54843C6.88075 1.83584 6.18055 2.53765 5.86111 3.05583C5.31588 3.94022 5.0312 5.04628 5.09443 6.03446C5.19254 7.56756 5.82527 8.84181 6.92149 9.71407L7.20162 9.93699V10.17V10.4029L7.01744 10.452C6.20152 10.6697 5.36411 10.9959 4.50755 11.4297C1.85417 12.7737 0.488439 14.6142 1.04654 16.094C1.38427 16.9896 2.49262 17.6958 4.21836 18.1151C6.2547 18.6099 9.19939 18.7609 12.2767 18.5283L12.6496 18.5002L12.6791 18.7225C12.73 19.1058 12.9176 19.6853 13.1375 20.1384C13.8498 21.6056 15.1921 22.6391 16.8543 23C17.3189 23.1009 18.32 23.102 18.828 23.0023C20.8377 22.6075 22.4195 21.1179 22.9432 19.1269C23.0688 18.6495 23.0769 18.5714 23.0769 17.8386C23.0769 17.1058 23.0688 17.0277 22.9432 16.5503C22.4251 14.5804 20.8974 13.1218 18.9027 12.6923C18.3882 12.5815 17.3986 12.57 16.9162 12.6692L16.5981 12.7346L16.1578 12.4038C15.0684 11.5856 13.419 10.7981 12.0662 10.4503L11.8821 10.4029V10.1724V9.94193L12.2044 9.67736C14.1134 8.11054 14.5577 5.22149 13.2226 3.05583C12.9031 2.53765 12.2029 1.83584 11.7186 1.54843C11.2397 1.26422 10.6703 1.05659 10.1585 0.979409C9.65534 0.903568 9.38587 0.904175 8.88498 0.982182ZM10.1122 1.84317C10.5774 1.93249 10.9829 2.09929 11.3845 2.36642C13.1886 3.56691 13.6741 6.25539 12.4253 8.13034C12.2023 8.46508 11.8269 8.85577 11.388 9.20992C11.0598 9.47471 11.0174 9.61205 11.0163 10.4128L11.0153 11.0909L11.3512 11.165C12.2214 11.3569 13.3024 11.7436 14.1314 12.1593C14.6523 12.4206 15.3218 12.8199 15.5094 12.9813L15.622 13.0781L15.3259 13.2409C14.1877 13.8665 13.2333 15.0408 12.857 16.2785C12.7527 16.6217 12.6188 17.3041 12.6188 17.4927C12.6188 17.5747 12.5892 17.5946 12.4346 17.6165C11.5713 17.7386 8.69897 17.7816 7.48331 17.6905C6.5916 17.6237 5.50847 17.4852 4.86942 17.3562C3.26576 17.0327 2.2228 16.4993 1.91918 15.8475C1.77461 15.537 1.80005 15.0856 1.98406 14.6967C2.65678 13.2746 5.20606 11.7195 7.77584 11.1636L8.11171 11.0909V10.5077C8.11171 9.68208 8.07955 9.58089 7.70772 9.23614C6.80807 8.40203 6.50237 7.99643 6.25223 7.3052C6.04165 6.72322 5.97491 6.27043 6.00035 5.5958C6.02575 4.92116 6.12005 4.51232 6.37708 3.96315C6.66237 3.35348 6.9764 2.94394 7.45588 2.55628C8.23947 1.92273 9.19319 1.6667 10.1122 1.84317ZM18.2861 13.4817C19.317 13.6003 20.2396 14.037 20.9411 14.7385C22.6999 16.4974 22.6342 19.355 20.7957 21.0489C19.9417 21.8359 18.8527 22.2306 17.6676 22.1826C17.0004 22.1556 16.5465 22.0397 15.9341 21.74C14.7435 21.1574 13.912 20.1272 13.585 18.8294C13.4709 18.3766 13.4826 17.2184 13.6058 16.7693C13.8368 15.9272 14.2466 15.2326 14.8485 14.6628C15.805 13.7574 17.0283 13.3371 18.2861 13.4817ZM17.6596 14.1957C17.4816 14.2744 17.3859 14.4635 17.3859 14.7362V14.9533L17.2025 15.0027C16.884 15.0885 16.6268 15.2467 16.397 15.4981C15.7522 16.2035 15.9498 17.1118 16.8632 17.6406C17.0196 17.7311 17.4011 17.9077 17.7109 18.0328C18.3889 18.3067 18.5461 18.3845 18.7236 18.5338C18.8842 18.669 18.8998 18.83 18.7779 19.0954C18.6323 19.4125 18.3754 19.5504 17.9307 19.5504C17.3879 19.5504 16.9056 19.2636 16.8449 18.9049C16.78 18.5204 16.3664 18.3702 16.1098 18.6378C16.0063 18.746 15.9885 18.7992 15.9927 18.9875C16.0021 19.4055 16.2475 19.7787 16.7098 20.078C16.8504 20.169 17.0698 20.2764 17.1973 20.3166L17.4293 20.3897V20.6398C17.4293 20.9538 17.4898 21.0883 17.6693 21.1735C17.8447 21.2567 17.8788 21.2569 18.0374 21.1749C18.2051 21.0881 18.296 20.9026 18.296 20.6469L18.2961 20.4389L18.5492 20.3645C19.0266 20.2242 19.4662 19.8188 19.6197 19.3771C19.7182 19.0935 19.7483 18.6444 19.6824 18.4416C19.5153 17.9278 19.1992 17.7039 17.844 17.1399C17.1416 16.8475 16.9091 16.6699 16.9094 16.426C16.9098 16.0529 17.2603 15.8095 17.7976 15.8092C18.3216 15.8089 18.5595 15.9823 18.6905 16.4601C18.786 16.8081 18.9177 16.9502 19.145 16.9502C19.504 16.9502 19.6515 16.6701 19.534 16.2115C19.4425 15.8544 19.3102 15.6321 19.0368 15.3764C18.8316 15.1845 18.4987 15 18.3574 15C18.3141 15 18.2959 14.9458 18.2957 14.8158C18.2956 14.7146 18.2752 14.5583 18.2503 14.4687C18.1783 14.2095 17.9094 14.0853 17.6596 14.1957Z" fill="black" stroke="black" stroke-width="0.5"/>
</svg>
