<svg width="573" height="295" viewBox="0 0 573 295" fill="none" xmlns="http://www.w3.org/2000/svg">
<g clip-path="url(#clip0_1847_12866)">
<path d="M76.0832 292.404C76.0832 292.404 -34.607 181.618 34.1329 115.377C102.873 49.1381 157.202 135.128 194.775 128.793C242.336 120.773 262.901 0.115982 334 0.000269538C414.894 -0.13102 474.27 47.6917 442.643 161.58C419.316 245.58 579.658 176.791 556.108 294.035L76.0832 292.404Z" fill="#F0F1F2"/>
<path d="M317.507 278.009C302.459 275.588 291.1 280.859 280.176 279.344C271.464 278.136 266.925 269.321 255.218 266.825C258.001 265.183 261.246 263.129 262.797 261.635C265.81 258.734 270.138 252.93 262.797 252.701C257.516 252.536 253.404 261.333 251.51 266.282C249.777 266.137 247.901 266.126 245.856 266.275C248.273 258.487 252.983 243.413 254.136 240.518C255.705 236.577 249.116 223.439 241.352 238.184C235.907 248.524 239.605 260.476 242.298 266.691C240.17 267.034 238.163 267.53 236.245 268.129C229.828 253.491 209.418 211.754 187.29 216.941C163.168 222.596 214.847 250.652 227.88 271.455C217.233 276.391 207.878 282.386 191.705 278.009C148.726 266.373 145.317 292.553 145.317 292.553L337.38 292.618C337.385 292.618 332.554 280.43 317.507 278.009Z" fill="#ACD29A"/>
<path d="M265.26 183.805C265.458 185.654 268.073 185.587 271.028 185.145C273.983 184.702 273.22 185.478 277.376 185.398C281.533 185.318 282.92 183.896 283.1 183.298C283.262 182.766 281.246 182.388 279.088 181.938C278.816 181.882 278.545 181.822 278.271 181.764C275.837 181.23 274.179 179.477 272.06 177.968C270.055 176.54 268.702 169.991 268.702 169.991L262.794 169.955C262.794 169.955 264.65 175.879 265.618 177.937C266.188 179.148 265.58 180.703 265.391 181.871C265.289 182.503 265.189 183.153 265.26 183.805Z" fill="#FFB07B"/>
<path d="M271.028 185.142C273.983 184.699 273.22 185.476 277.376 185.396C281.533 185.316 282.92 183.894 283.1 183.295C283.262 182.763 281.246 182.385 279.088 181.936L279.063 181.976C279.063 181.976 276.435 183.5 273.004 183.271C270.207 183.084 267.323 182.014 265.391 181.871C265.289 182.505 265.189 183.155 265.258 183.805C265.456 185.652 268.073 185.585 271.028 185.142Z" fill="#365DA4"/>
<path d="M219.066 183.512C219.195 185.365 221.81 185.399 224.781 185.067C227.751 184.736 226.959 185.483 231.114 185.559C235.27 185.635 236.708 184.268 236.913 183.674C237.095 183.147 235.095 182.695 232.954 182.163C232.685 182.096 232.415 182.027 232.144 181.958C229.732 181.333 228.141 179.52 226.082 177.933C224.131 176.429 225.737 170.191 225.737 170.191L221.254 168.075C221.254 168.075 220.637 174.504 220.303 177.755C220.168 179.086 219.505 180.423 219.269 181.582C219.146 182.214 219.022 182.857 219.066 183.512Z" fill="#FFB07B"/>
<path d="M224.781 185.068C227.751 184.736 226.959 185.484 231.114 185.56C235.27 185.635 236.708 184.269 236.913 183.675C237.095 183.147 235.095 182.696 232.954 182.164L232.927 182.204C232.927 182.204 230.244 183.628 226.823 183.27C224.035 182.978 221.194 181.801 219.269 181.583C219.142 182.213 219.017 182.858 219.064 183.51C219.195 185.366 221.81 185.399 224.781 185.068Z" fill="#365DA4"/>
<path d="M229.138 90.9413C229.138 90.9413 227.896 96.954 226.652 127.449C226.652 127.449 224.345 133.094 222.673 139.999C221 146.902 219.818 175.71 219.818 175.71C219.818 175.71 220.486 176.671 222.511 176.793C224.164 176.894 225.453 176.168 225.453 176.168C225.453 176.168 237.084 138.437 242.747 123.79C248.408 109.142 251.726 88.2266 251.726 88.2266L229.138 90.9413Z" fill="#2B478B"/>
<path d="M243.128 93.5164C243.128 93.5164 244.045 99.5869 253.435 128.626C253.435 128.626 253.226 134.721 254.047 141.777C254.868 148.834 264.372 176.616 264.372 176.616C264.372 176.616 265.634 177.054 267.527 176.554C269.288 176.088 270.667 175.029 270.667 175.029C270.667 175.029 267.022 135.322 267.263 119.618C267.503 103.917 263.373 83.1445 263.373 83.1445L243.128 93.5164Z" fill="#2B478B"/>
<path d="M259.759 9.41526C258.286 8.47843 256.477 8.29374 255.202 8.30486C255.547 7.98443 256.194 7.89319 256.194 7.89319C255.413 7.73742 253.615 8.42948 253.615 8.42948C242.874 3.66078 240.346 19.7026 240.389 23.461C240.431 27.2194 240.242 31.5342 234.605 34.6206C223.517 40.6955 232.017 52.6918 232.017 52.6918C230.021 58.4195 237.411 65.4357 237.411 65.4357C237.287 62.3938 251.248 43.0164 258.776 38.5949C260.681 36.0714 261.542 31.4874 261.608 31.1269C261.119 34.7697 260.391 36.7924 259.773 37.9184C266.23 32.5489 263.66 11.8964 259.759 9.41526Z" fill="#C65447"/>
<path d="M257.418 36.5184C257.456 36.5362 253.896 38.3831 251.219 37.651C248.7 36.9657 247.053 33.6968 247.089 33.6901C248.155 33.4787 248.464 32.0123 248.442 25.7148L248.925 25.8105L256.742 27.3593L257.033 27.4149C257.033 27.4149 256.849 29.9673 256.842 32.3705C256.84 32.8801 256.849 33.3808 256.866 33.8503C256.918 35.2456 257.073 36.356 257.418 36.5184Z" fill="#FFB07B"/>
<path d="M256.84 32.3705C256.837 32.8801 256.846 33.3807 256.864 33.8503C252.318 33.6678 249.697 28.4674 248.706 26.1865L256.74 27.3592L257.031 27.4149C257.031 27.4149 256.846 29.9672 256.84 32.3705Z" fill="#EA8E50"/>
<path d="M248.086 24.9276C248.086 24.9276 245.707 21.1714 245.137 17.9582C244.73 15.664 245.898 7.16353 254.441 8.38742C254.441 8.38742 256.922 8.6322 259.254 10.2077C261.11 11.4605 263.787 14.1641 260.794 21.5831L260.017 24.0887L248.086 24.9276Z" fill="#C65447"/>
<path d="M257.51 31.1942C257.51 31.1942 246.866 29.7878 247.843 23.1721C248.822 16.5565 248.106 11.9191 254.944 12.5377C261.782 13.1563 262.726 15.8756 262.937 18.1631C263.146 20.4507 260.302 31.39 257.51 31.1942Z" fill="#FFB07B"/>
<path d="M259.804 13.0965C259.804 13.0965 255.74 20.422 251.107 20.9048C246.474 21.3877 244.717 19.9035 244.717 19.9035C244.717 19.9035 248.544 17.6938 249.961 13.0542C249.964 13.0564 258.161 9.07767 259.804 13.0965Z" fill="#C65447"/>
<path d="M258.989 13.6191C258.989 13.6191 260.903 15.6753 261.181 17.4377C261.459 19.2001 261.181 22.7026 262.209 22.736C262.209 22.736 265.187 17.787 263.168 14.438C261.03 10.8865 258.989 13.6191 258.989 13.6191Z" fill="#C65447"/>
<path d="M329.679 103.498C327.444 98.767 321.238 94.8527 316.007 94.8527C312.144 94.8527 308.737 96.1701 306.1 98.3175C304.593 99.5458 302.319 98.7358 301.91 96.8354L297.333 75.5643C296.665 72.4624 293.61 70.4886 290.508 71.1561L216.427 87.1C213.396 87.752 211.469 90.7383 212.121 93.7691L228.047 167.77C228.504 169.886 230.055 171.483 231.979 172.095L231.007 172.371H233.882L233.906 172.367C234.258 172.356 234.614 172.316 234.97 172.24L236.583 171.893L255.596 167.801C258.264 167.227 259.348 163.998 257.554 161.942C255.823 159.954 254.577 157.491 254.045 154.703C252.549 146.843 257.407 139.059 265.129 136.965C273.718 134.638 282.392 140.001 284.241 148.588C284.936 151.819 284.564 155.03 283.36 157.856C282.893 158.953 283.28 160.095 284.083 160.744L282.975 161.285L285.545 161.283C285.737 161.287 285.937 161.272 286.14 161.227L308.841 156.341C311.943 155.673 313.919 152.616 313.25 149.514L308.699 128.374C308.278 126.418 310.061 124.702 312.001 125.201C314.242 125.777 316.648 125.855 319.064 125.334C328.559 123.289 334.114 112.891 329.679 103.498Z" fill="#D86713"/>
<path d="M313.39 94.8518C309.527 94.8518 306.12 96.1691 303.483 98.3165C301.977 99.5448 299.702 98.7348 299.293 96.8345L294.716 75.5634C294.048 72.4614 290.993 70.4876 287.891 71.1552L213.81 87.099C210.779 87.751 208.852 90.7373 209.504 93.7681L225.43 167.769C226.107 170.915 229.207 172.916 232.353 172.239L252.979 167.8C255.647 167.226 256.731 163.997 254.937 161.941C253.206 159.953 251.96 157.49 251.428 154.702C249.933 146.842 254.79 139.058 262.512 136.964C271.101 134.637 279.775 140 281.624 148.587C282.321 151.818 281.947 155.029 280.743 157.855C279.96 159.691 281.569 161.647 283.518 161.226L306.22 156.34C309.322 155.672 311.296 152.615 310.628 149.513L306.078 128.373C305.657 126.417 307.442 124.701 309.38 125.2C311.621 125.776 314.026 125.854 316.443 125.333C325.942 123.288 331.494 112.892 327.059 103.497C324.828 98.7682 318.621 94.854 313.39 94.8518Z" fill="#F1A34F"/>
<path d="M286.284 66.7197C286.284 66.7197 290.904 67.4763 292.116 70.4826C293.327 73.4867 291.636 75.5228 290.986 75.5161C290.336 75.5094 289.088 75.0288 288.505 73.4689C287.92 71.909 286.284 66.7197 286.284 66.7197Z" fill="#FFB07B"/>
<path d="M222.671 80.127C222.671 80.127 227.858 80.1203 229.725 83.1867C231.59 86.253 230.11 88.7809 229.398 88.8922C228.686 89.0012 227.237 88.7008 226.316 87.1031C225.397 85.5054 222.671 80.127 222.671 80.127Z" fill="#FFB07B"/>
<path d="M286.413 70.2062C285.952 70.1083 283.943 69.8724 281.384 69.4696C276.675 68.7309 270.109 67.4291 267.906 65.3974C267.309 64.8456 265.919 61.8104 264.474 58.3301C263.012 66.0339 262.932 71.9441 263.32 76.4413L231.49 83.2928C234.22 77.7742 238.444 70.9338 237.651 65.3974C237.358 63.3458 236.234 60.5286 235.813 57.3643C235.778 57.0928 235.749 56.8191 235.724 56.5432C231.26 60.2171 226.102 64.2715 225.98 65.0837C225.775 66.4433 229.251 81.4904 229.251 81.4904C228.388 83.4775 224.64 83.0592 224.64 83.0592C221.127 80.5513 215.962 66.3365 216.376 63.1878C216.79 60.0391 229.598 42.0925 232.698 37.8044C235.76 33.5676 246.94 33.6722 247.209 33.6744H247.211C247.213 33.6744 247.213 33.6744 247.215 33.6744C256.105 39.0127 256.906 34.5756 256.906 34.5756C256.906 34.5756 264.928 36.1021 266.306 38.4698C267.685 40.8397 273.729 58.8085 274.156 59.4427C275.051 60.7667 289.664 66.0606 289.927 67.5938C290.192 69.1247 287.724 70.4844 286.413 70.2062Z" fill="#80BDCC"/>
<path d="M242.589 80.9168L231.49 83.2955C234.253 77.7925 237.885 70.941 237.091 65.438C236.795 63.3841 236.127 60.9519 235.807 57.7742C235.776 57.4671 235.722 56.5459 235.722 56.5459C235.722 56.5459 243.582 62.7321 243.72 69.4256C243.795 72.897 243.188 77.4387 242.589 80.9168Z" fill="#5F9AA8"/>
<path d="M281.68 69.5101C276.914 68.7691 270.267 67.4695 268.037 65.4357C267.432 64.8838 266.026 61.8441 264.564 58.3594C264.564 58.3594 264.052 52.7585 265.516 52.9676C266.98 53.1768 269.134 63.1103 270.672 63.7378C272.047 64.303 279.653 67.2225 281.68 69.5101Z" fill="#5F9AA8"/>
<path d="M516.501 282.894C515.829 285.157 512.727 286.668 512.309 289.434C512.104 290.785 511.601 291.835 510.962 292.556H501.305C501.401 292.024 501.826 291.452 503.081 291.176C505.762 290.589 506.775 287.338 506.608 284.32C506.539 283.054 506.57 281.612 506.632 280.364C506.717 278.635 506.859 277.277 506.859 277.277L512.56 275.936L513.159 276.705L513.733 277.444C513.733 277.446 517.171 280.631 516.501 282.894Z" fill="#2C3A64"/>
<path d="M471.529 292.555H451.989C452.432 292.037 453.182 291.536 454.452 291.329C457.459 290.842 462.668 289.095 463.827 285.252C463.865 285.13 463.899 285.003 463.928 284.874C464.849 280.766 471.558 286.131 471.558 286.131C471.558 286.131 471.578 286.296 471.609 286.576C471.727 287.733 471.987 290.871 471.529 292.555Z" fill="#2C3A64"/>
<path d="M455.251 183.704C455.251 183.704 456.27 196.414 457.468 211.693C459.094 232.447 461.053 257.942 461.246 262.771C461.58 271.158 462.924 284.572 462.924 284.572C462.924 284.572 466.108 287.758 472.484 286.416C472.484 286.416 478.162 267.266 479.787 247.005C479.811 246.673 479.838 246.337 479.862 246.004C481.371 225.378 483.719 181.943 483.719 181.943L455.251 183.704Z" fill="#35488B"/>
<path d="M455.251 183.704C455.251 183.704 456.27 196.414 457.468 211.693L479.785 247.005C479.809 246.673 479.836 246.337 479.86 246.004C481.369 225.378 483.717 181.943 483.717 181.943L455.251 183.704Z" fill="#2C3A64"/>
<path d="M459.902 185.212C459.902 185.212 478.265 231.246 490.339 252.877C502.413 274.509 506.187 280.548 506.187 280.548C506.187 280.548 513.105 277.782 513.733 275.895C513.733 275.895 509.116 234.132 501.029 223.951C496.461 218.199 491.093 200.936 490.842 194.898C490.59 188.861 489.206 176.914 489.206 176.914L459.902 185.212Z" fill="#35488B"/>
<path d="M469.322 114.156C468.505 109.336 468.48 106.479 468.48 106.479L477.797 98.9707C477.45 109.296 484.066 114.26 484.066 114.26C484.066 114.26 471.651 120.371 464.475 118.108C464.473 118.108 466.24 115.849 469.322 114.156Z" fill="#935C2F"/>
<path d="M466.284 106.307C466.284 106.307 478.136 108.276 479.248 100.875C480.361 93.4742 482.64 88.7455 475.12 87.1745C467.599 85.6035 465.701 88.207 464.729 90.5858C463.758 92.969 463.231 105.606 466.284 106.307Z" fill="#A16D3C"/>
<path d="M424.656 121.564L422.133 120.002C422.133 120.002 418.986 115.358 413.612 118.244C413.612 118.244 411.483 119.601 412.912 120.739C414.34 121.876 413.955 121.233 415.936 122.879C417.914 124.526 420.475 125.113 422.126 124.205L424.245 124.005L424.656 121.564Z" fill="#A16D3C"/>
<path d="M421.661 122.051C422.311 120.018 422.62 119.84 422.62 119.84C422.62 119.84 443.028 122.252 444.951 122.394C446.875 122.536 473.592 117.031 473.592 117.031L486.207 132.35C486.207 132.35 449.012 133.752 444.145 133.296C436.101 132.541 421.514 125.053 421.514 125.053C421.514 125.053 421.149 123.647 421.661 122.051Z" fill="#61033A"/>
<path d="M490.608 179.264C490.644 180.054 489.015 180.921 488.307 181.24C482.98 183.627 478.02 185.287 472.415 185.826C465.766 186.507 457.908 185.011 455.213 185.047C454.924 185.047 454.675 184.94 454.459 184.76C454.279 184.615 454.134 176.495 454.279 166.255C454.279 165.859 454.279 165.427 454.314 165.031V164.889C454.326 163.823 454.341 162.739 454.366 161.644C454.432 158.651 454.546 155.578 454.675 152.525C454.871 148.023 455.138 143.6 455.507 139.681C455.894 135.589 456.386 132.042 457.012 129.529C458.449 123.744 461.756 119.934 464.773 117.13L467.252 114.941C469.731 115.444 472.355 115.299 474.978 114.006C477.815 112.604 480.908 111.096 481.409 111.454C485.241 114.318 487.82 120.818 489.142 129.08C489.854 133.526 490.201 138.482 490.181 143.655C490.172 145.64 490.112 147.654 489.996 149.688C489.355 160.598 490.014 170.06 490.39 175.556C490.497 177.141 490.584 178.398 490.608 179.264Z" fill="#7E004A"/>
<path d="M427.598 78.3955L352.641 66.4905C349.454 65.9831 346.459 68.1572 345.954 71.3437L342.636 92.2365C342.483 93.2045 342.727 95.9238 342.727 95.9238L345.429 96.3265C345.582 96.3599 345.738 96.3844 345.896 96.3955C346.386 96.4356 346.895 96.3733 347.405 96.1908C349.89 95.2918 352.643 95.0181 355.445 95.5321C363.335 96.9785 368.854 104.342 368.015 112.319C367.08 121.194 358.925 127.362 350.227 125.98C346.953 125.459 344.085 123.948 341.88 121.799C341.452 121.383 340.936 121.162 340.418 121.109L337.592 120.684L334.071 146.17C333.573 149.312 335.716 152.265 338.858 152.765L360.271 156.166C362.252 156.479 363.211 158.769 362.043 160.4C360.692 162.287 359.748 164.508 359.361 166.956C357.832 176.578 365.543 185.534 375.933 184.789C381.164 184.413 387.07 180.027 388.966 175.136C390.365 171.524 390.368 167.861 389.313 164.619C388.71 162.766 390.292 160.932 392.217 161.239L413.764 164.662C416.906 165.16 419.857 163.019 420.355 159.877L432.271 84.8376C432.761 81.7668 430.669 78.8829 427.598 78.3955Z" fill="#61033A"/>
<path d="M481.68 128.86C481.68 128.86 475.935 155.672 454.363 161.647C454.43 158.654 454.544 155.581 454.673 152.528C454.869 148.026 455.136 143.603 455.505 139.684C455.89 139.486 456.253 139.33 456.582 139.221C463.903 136.809 481.68 128.86 481.68 128.86Z" fill="#61033A"/>
<path d="M386.195 174.718C387.595 171.106 387.597 167.444 386.542 164.201C385.939 162.348 387.522 160.514 389.446 160.821L410.991 164.244C414.133 164.742 417.084 162.599 417.582 159.459L429.499 84.4198C429.986 81.3512 427.892 78.4673 424.823 77.9799L349.866 66.0749C346.679 65.5698 343.684 67.7416 343.179 70.9282L339.861 91.821C339.432 94.5246 342.058 96.7054 344.632 95.7752C347.118 94.8762 349.87 94.6025 352.67 95.1165C360.561 96.5629 366.079 103.926 365.24 111.904C364.306 120.778 356.152 126.946 347.452 125.565C344.178 125.044 341.312 123.533 339.105 121.383C337.672 119.986 335.262 120.782 334.948 122.759L331.296 145.754C330.798 148.896 332.941 151.849 336.083 152.35L357.496 155.75C359.479 156.064 360.436 158.353 359.268 159.985C357.917 161.872 356.973 164.092 356.586 166.54C355.057 176.162 362.768 185.119 373.158 184.373C378.394 183.995 384.302 179.607 386.195 174.718Z" fill="#7E004A"/>
<path d="M424.743 138.85L421.661 138.34C421.661 138.34 418.147 133.255 412.024 136.108C412.024 136.108 409.596 137.466 411.2 138.738C412.807 140.009 412.38 139.308 414.603 141.148C416.828 142.986 419.723 143.721 421.605 142.822L424.009 142.697L424.743 138.85Z" fill="#A16D3C"/>
<path d="M422.386 140.416C422.487 138.149 423.695 137.906 423.695 137.906C423.695 137.906 447.04 136.362 449.054 135.972C451.068 135.581 469.662 120.175 469.662 120.175C469.662 120.175 476.852 113.713 481.89 115.894C486.267 117.79 487.637 121.528 487.858 124.966C488.12 129.063 485.81 132.895 482.09 134.63C473.738 138.531 457.038 146.186 453.235 146.847C444.77 148.318 423.014 143.605 423.014 143.605C423.014 143.605 422.309 142.198 422.386 140.416Z" fill="#7E004A"/>
<path d="M464.731 90.5901C464.731 90.5901 459.92 87.023 463.057 81.4799C463.057 81.4799 466.843 82.7349 472.219 81.4799C477.595 80.2249 482.406 82.0028 483.033 83.8854C483.033 83.8854 485.125 84.7221 485.334 87.8597C485.544 90.9973 479.253 100.88 479.253 100.88C479.253 100.88 477.909 99.2062 478.276 98.0557C478.641 96.9053 479.791 94.344 478.38 94.344C476.97 94.344 476.498 96.4358 475.924 95.5991C475.35 94.7624 476.396 91.2598 474.722 90.6835C473.044 90.1072 466.613 91.647 464.731 90.5901Z" fill="#2C3A64"/>
<path d="M301.224 289.885L280.036 193.681H285.868C287.25 193.681 288.38 192.55 288.38 191.168V187.92C288.38 186.538 287.25 185.407 285.868 185.407H211.881C210.499 185.407 209.366 186.538 209.366 187.92V191.168C209.366 192.55 210.497 193.681 211.881 193.681H219.389L198.2 289.885C197.915 291.177 198.736 292.47 200.027 292.755C201.315 293.042 202.604 292.217 202.889 290.924L224.307 193.681H275.116L296.534 290.924C296.818 292.217 298.107 293.042 299.395 292.755C300.688 292.47 301.509 291.177 301.224 289.885Z" fill="#C3E0F4"/>
<path d="M441.735 230.97C433.893 223.442 405.66 270.944 405.66 270.944C405.66 270.944 449.577 238.5 441.735 230.97Z" fill="#ACD29A"/>
<path d="M440.794 252.93C433.851 250.153 411.663 273.545 406.665 278.948C402.842 278.44 398.648 278.109 394.05 278.029C358.916 277.401 342.979 293.316 342.979 293.316L440.992 293.65C440.992 293.65 432.309 282.626 407.68 279.088C413.697 276.246 431.499 267.968 437.972 266.375C445.814 264.444 448.636 256.066 440.794 252.93Z" fill="#ACD29A"/>
<path d="M413.15 205.251H391.996C389.259 205.251 387.517 208.186 388.841 210.583C390.118 212.897 385.621 232.942 376.146 233.465C367.236 233.957 359.864 226.847 359.864 218.039C359.864 214.726 360.908 211.655 362.683 209.141C363.838 207.505 362.674 205.251 360.674 205.251H337.391C334.209 205.251 331.628 207.83 331.628 211.014C331.628 211.014 329.518 236.006 327.723 235.109C325.873 234.186 323.813 233.623 321.634 233.509H321.614C321.354 233.496 321.094 233.489 320.829 233.489C320.564 233.489 316.732 233.425 316.732 233.425L316.151 264.309L319.48 264.345C322.644 264.251 325.393 263.953 327.836 262.709C329.572 261.823 331.63 263.096 331.63 265.045V286.862C331.63 290.042 334.209 292.621 337.389 292.621H413.368C416.476 292.621 418.995 290.102 418.995 286.993V211.097C418.991 207.866 416.376 205.251 413.15 205.251Z" fill="#D86713"/>
<path d="M313.292 263.945C317.079 264.761 320.695 264.187 323.733 262.638C325.468 261.753 327.527 263.026 327.527 264.975V286.791C327.527 289.971 330.106 292.55 333.286 292.55H409.264C412.373 292.55 414.892 290.031 414.892 286.922V211.026C414.892 207.8 412.275 205.183 409.048 205.183H387.895C385.158 205.183 383.416 208.118 384.74 210.514C386.017 212.829 386.72 215.506 386.651 218.349C386.46 226.369 380.056 232.976 372.045 233.396C363.135 233.866 355.763 226.779 355.763 217.971C355.763 214.658 356.806 211.587 358.582 209.072C359.737 207.437 358.573 205.183 356.573 205.183H333.29C330.108 205.183 327.527 207.762 327.527 210.946V232.627C327.527 234.634 325.417 235.938 323.621 235.041C321.545 234.004 319.204 233.421 316.728 233.421C306.985 233.421 299.348 242.44 301.714 252.585C302.907 257.694 308.165 262.841 313.292 263.945Z" fill="#F1A34F"/>
<path d="M93.3022 292.978L106.959 293.078C106.959 293.078 106.485 289.774 97.2921 288.922C93.7295 279.022 83.2597 252.392 74.1673 253.652C65.1907 254.895 86.4507 279.326 95.098 288.824C93.8741 288.826 92.7348 288.926 91.68 289.095C89.5972 284.947 85.4649 279.084 78.8359 279.351C71.7797 279.636 81.3927 286.078 88.0106 290.034C84.6594 291.236 82.848 292.9 82.848 292.9L93.1465 292.976C93.2666 293.043 93.3334 293.078 93.3334 293.078C93.3334 293.078 93.3245 293.043 93.3022 292.978Z" fill="#ACD29A"/>
<path d="M142.093 182.632L144.113 184.272C144.113 184.272 149.641 182.289 150.887 188.858C150.887 188.858 151.219 191.657 149.445 191.662C147.672 191.666 148.404 191.355 145.894 191.43C143.384 191.506 141.303 190.18 140.934 188.144L139.732 186.417L142.093 182.632Z" fill="#EA8E50"/>
<path d="M141.864 186.153C143.475 184.47 143.346 183.226 143.346 183.226C143.346 183.226 124.68 167.943 122.787 166.7C121.496 165.852 107.751 153.664 101.324 146.234C98.1377 142.549 94.1879 143.98 89.6706 145.275L85.95 146.343C81.4573 147.631 80.289 153.913 83.9762 156.966C94.357 165.565 111.623 175.233 114.854 177.267C122.873 182.312 138.573 188.309 138.573 188.309C138.573 188.309 140.48 187.599 141.864 186.153Z" fill="#1E3D70"/>
<path d="M163.709 279.887C163.709 279.887 168.239 283.28 175.18 281.487C175.18 281.487 180.776 280.212 182.005 283.002C182.005 283.002 173.422 287.361 171.25 288.554C169.612 289.453 167.906 290.871 166.697 291.968C165.743 292.835 164.252 292.717 163.437 291.716C163.059 291.251 162.627 290.699 162.153 290.058C160.829 288.265 157.747 282.472 157.747 282.472L163.709 279.887Z" fill="#233862"/>
<path d="M165.825 278.32C165.825 278.32 163.066 284.68 156.699 283.512C156.699 283.512 143.706 272.781 134.794 261.635C131.899 258.015 129.436 254.352 127.987 250.998C122.077 237.315 106.126 216.908 95.9836 206.565L121.358 197.386C121.358 197.386 129.485 213.735 140.299 233.817C148.092 248.284 157.278 264.693 165.825 278.32Z" fill="#7E004A"/>
<path d="M140.299 233.815L134.794 261.635C131.899 258.015 129.436 254.352 127.987 250.998C122.077 237.315 106.126 216.908 95.9836 206.565L121.358 197.386C121.358 197.384 129.485 213.732 140.299 233.815Z" fill="#61033A"/>
<path d="M119.491 283.497C119.491 283.497 119.215 288.572 125.368 289.249C125.368 289.249 128.884 289.267 128.893 292.498L111.011 292.553C111.011 292.553 110.492 291.249 110.365 288.459C110.27 286.316 112.444 280.713 112.444 280.713L119.491 283.497Z" fill="#233862"/>
<path d="M113.036 197.384C113.036 197.384 124.34 209.805 131.514 232.182C135.417 244.356 124.358 274.967 122.201 285.603C122.201 285.603 114.783 286.233 109.709 284.273C109.709 284.273 109.324 262.305 112.29 245.375C113.95 235.9 97.4078 225.11 90.178 207.989C85.2602 196.342 91.2439 196.538 98.5961 196.26L113.036 197.384Z" fill="#7E004A"/>
<path d="M99.9869 141.969C93.6984 145.521 80.8231 142.245 80.8231 142.245C80.8231 142.245 86.0524 136.268 83.6759 126.64L88.6137 129.147L93.9187 131.842C93.9187 131.842 94.2614 133.542 94.4995 136.595C94.5595 137.381 94.6152 138.26 94.653 139.219C97.8796 140.2 99.9869 141.969 99.9869 141.969Z" fill="#FFB07B"/>
<path d="M123.047 196.744C123.047 197.849 121.774 198.379 121.503 198.433C118.966 198.895 111.883 201.65 105.503 202.282C100.131 202.845 95.1425 202.311 89.664 201.21C88.9385 201.063 87.234 200.604 87.1138 199.91C86.9625 199.151 65.9762 157.128 82.2917 139.079C82.6745 138.656 85.8944 139.417 88.8406 140.118C91.5599 140.763 94.0544 140.403 96.2818 139.51L99.0434 140.963C102.435 142.853 108.852 149.568 109.604 154.836C109.985 157.515 111.518 159.5 111.961 161.856C112.126 162.728 112.295 163.581 112.466 164.409C112.8 166.037 113.145 167.586 113.499 169.059C114.458 173.045 115.47 176.474 116.465 179.438C117.524 182.584 118.561 185.201 119.489 187.391C120.693 190.23 121.707 192.351 122.344 193.978C122.791 195.119 123.047 196.016 123.047 196.744Z" fill="#2A4E96"/>
<path d="M122.342 193.974C92.717 180.015 82.4586 153.217 82.4586 153.217C82.4586 153.217 106.527 162.096 112.464 164.408C112.798 166.036 113.142 167.585 113.496 169.058C114.455 173.044 115.468 176.473 116.463 179.437C117.522 182.583 118.559 185.2 119.487 187.39C120.691 190.227 121.707 192.348 122.342 193.974Z" fill="#1E3D70"/>
<path d="M206.02 164.29L199.676 144.169C199.059 142.216 197.036 141.29 195.272 141.786L195.267 141.788C195.174 141.815 195.08 141.846 194.989 141.882L192.764 142.625C192.764 142.625 189.281 146.212 186.78 146.935C179.094 149.158 171.8 145.062 168.996 137.569C165.876 129.236 169.497 120.083 177.873 117.44C180.739 116.536 186.38 118.221 186.38 118.221L188.645 117.469C189.876 117.095 190.719 115.769 190.281 114.373L183.296 92.2277C182.341 89.2014 179.114 87.5213 176.086 88.4759L155.464 94.9803C153.555 95.5833 151.682 93.9656 151.997 91.9896C152.362 89.7043 152.213 87.3032 151.47 84.9467C148.548 75.6808 137.678 71.1213 128.737 76.4151C124.235 79.081 120.92 85.6254 121.405 90.8347C121.765 94.6799 123.394 97.9488 125.78 100.374C127.144 101.761 126.55 104.099 124.694 104.685L103.943 111.229C100.917 112.184 99.2392 115.41 100.192 118.434L122.983 190.704C123.915 193.659 127.068 195.301 130.023 194.369L202.212 171.602C205.283 170.634 206.988 167.361 206.02 164.29Z" fill="#61033A"/>
<path d="M119.208 91.565C119.569 95.4102 121.198 98.6791 123.583 101.105C124.945 102.491 124.353 104.83 122.497 105.415L101.747 111.959C98.7206 112.914 97.0428 116.141 97.9952 119.167L120.786 191.436C121.719 194.393 124.872 196.033 127.827 195.101L200.016 172.335C203.085 171.367 204.789 168.093 203.821 165.025L197.475 144.904C196.654 142.301 193.338 141.524 191.458 143.502C189.64 145.411 187.305 146.882 184.577 147.672C176.891 149.895 168.687 145.785 165.883 138.293C162.763 129.959 167.294 120.82 175.672 118.179C178.823 117.184 182.056 117.258 184.982 118.192C186.883 118.8 188.681 117.017 188.08 115.113L181.095 92.9647C180.14 89.9384 176.913 88.2583 173.885 89.2129L153.261 95.7173C151.352 96.3181 149.478 94.7026 149.794 92.7266C150.159 90.4413 150.01 88.0402 149.267 85.6815C146.345 76.4133 135.475 71.856 126.536 77.1499C122.039 79.8113 118.721 86.3579 119.208 91.565Z" fill="#7E004A"/>
<path d="M139.674 185.886L142.233 186.825C142.233 186.825 147.36 183.2 150.551 189.095C150.551 189.095 151.706 191.67 149.879 192.228C148.052 192.787 148.715 192.262 146.147 193.116C143.579 193.971 141.049 193.356 140.079 191.521L138.339 190.243L139.674 185.886Z" fill="#FFB07B"/>
<path d="M141.781 189.507C142.727 187.037 143.161 185.92 143.161 185.92C143.161 185.92 123.817 170.154 121.848 168.801C120.503 167.879 107.134 157.886 100.614 150.095C97.381 146.232 92.283 144.465 87.3518 145.5L83.2907 146.352C78.3885 147.381 76.7953 153.587 80.5982 156.847C91.3105 166.03 109.377 176.68 112.746 178.897C121.109 184.395 139.605 192.103 139.605 192.103C139.605 192.103 141.038 191.445 141.781 189.507Z" fill="#2A4E96"/>
<path d="M94.4972 136.596C88.3133 136.943 84.29 131.837 84.29 131.837C84.29 131.837 87.0872 130.288 88.6115 129.148L93.9164 131.843C93.9164 131.841 94.2591 133.541 94.4972 136.596Z" fill="#EA8E50"/>
<path d="M97.1341 130.246C97.1341 130.246 87.7636 136.971 83.6647 131.072C79.5681 125.173 75.5982 122.066 81.4061 117.522C87.2162 112.978 89.9555 114.414 91.8002 116.051C93.6494 117.687 99.4662 128.346 97.1341 130.246Z" fill="#FFB07B"/>
<path d="M92.7926 110.721C92.4566 108.454 91.7001 106.858 91.7001 106.858C91.7001 106.858 91.1126 109.295 86.6599 108.959C82.2072 108.623 75.1531 109.397 72.8011 114.469C72.652 114.791 72.5185 115.125 72.4005 115.463C71.9755 114.34 71.8731 112.653 71.8731 112.653C71.0275 114.836 71.8731 117.568 71.8731 117.568C71.8598 117.649 71.8509 117.729 71.8375 117.809C70.8562 118.639 70.0306 121.222 70.0306 121.222C70.3266 120.504 71.0498 120.032 71.6951 119.743C71.6751 123.69 73.275 127.549 76.0855 128.697C80.1933 130.377 80.1622 129.095 84.2944 131.837C84.2944 131.837 85.4026 130.462 84.646 129.538C83.8894 128.615 81.0345 127.271 82.63 125.927C84.2255 124.582 84.8129 126.093 85.4026 125.17C85.9901 124.246 83.0505 121.558 86.8312 119.039C90.6075 116.518 93.1287 112.991 92.7926 110.721Z" fill="#233862"/>
<path d="M334.022 292.589C334.022 292.589 329.285 285.584 321.868 286.149C319.614 286.32 315.951 286.87 311.696 287.455C308.488 276.26 299.644 249.644 287.715 248.146C275.532 246.615 299.373 276.215 309.12 287.802C307.342 288.036 305.495 288.265 303.632 288.467C298.472 282.956 289.477 274.791 281.967 275.419C274.439 276.048 288.534 283.832 298.708 288.924C292.466 289.391 286.547 289.34 282.928 287.94C274.07 284.515 265.928 292.586 265.928 292.586H334.022V292.589Z" fill="#82B378"/>
<path d="M572.35 294.073H0.64977C0.293732 294.073 0 293.781 0 293.423V293.201C0 292.844 0.291506 292.551 0.64977 292.551H572.35C572.706 292.551 573 292.842 573 293.201V293.423C573 293.781 572.706 294.073 572.35 294.073Z" fill="#2E3552"/>
</g>
<defs>
<clipPath id="clip0_1847_12866">
<rect width="573" height="294.073" fill="white"/>
</clipPath>
</defs>
</svg>
