<svg width="175" height="168" viewBox="0 0 175 168" fill="none" xmlns="http://www.w3.org/2000/svg">
<path d="M3.51674 47.6582C2.64199 47.6582 1.93828 48.3668 1.93828 49.2367V50.3606C1.93828 50.7809 1.77213 51.1816 1.47403 51.4797L1 51.9538L1.32742 52.2812C1.62552 52.5793 1.79167 52.98 1.79167 53.4003V54.3532C1.79167 55.228 2.50027 55.9317 3.37014 55.9317H3.62914" stroke="#AEAEAE" stroke-miterlimit="10" stroke-linecap="round" stroke-linejoin="round"/>
<path d="M14.6587 47.6582C15.5335 47.6582 16.2372 48.3668 16.2372 49.2367V50.3606C16.2372 50.7809 16.4033 51.1816 16.7014 51.4797L17.1755 51.9538L16.8481 52.2812C16.55 52.5793 16.3838 52.98 16.3838 53.4003V54.3532C16.3838 55.228 15.6752 55.9317 14.8053 55.9317H14.5463" stroke="#AEAEAE" stroke-miterlimit="10" stroke-linecap="round" stroke-linejoin="round"/>
<path d="M5.89173 56.0996C5.66693 56.6763 5.44703 57.2529 5.22223 57.8296" stroke="#AEAEAE" stroke-miterlimit="10" stroke-linecap="round" stroke-linejoin="round"/>
<path d="M38.1306 56.0996C37.9058 56.6763 37.6859 57.2529 37.4611 57.8296" stroke="#AEAEAE" stroke-miterlimit="10" stroke-linecap="round" stroke-linejoin="round"/>
<path d="M45.1968 56.0996C44.972 56.6763 44.7521 57.2529 44.5273 57.8296" stroke="#AEAEAE" stroke-miterlimit="10" stroke-linecap="round" stroke-linejoin="round"/>
<path d="M46.404 56.0996C46.1792 56.6763 45.9593 57.2529 45.7345 57.8296" stroke="#AEAEAE" stroke-miterlimit="10" stroke-linecap="round" stroke-linejoin="round"/>
<path d="M12.6308 49.3799H7.97852V54.0322H12.6308V49.3799Z" fill="#9A9A9A"/>
<path d="M22.3753 46.9268C20.743 50.0886 20.7186 54.0323 22.3166 57.2087" stroke="#AEAEAE" stroke-miterlimit="10" stroke-linecap="round" stroke-linejoin="round"/>
<path d="M47.6893 46.9268C49.3215 50.0886 49.3459 54.0323 47.7479 57.2087" stroke="#AEAEAE" stroke-miterlimit="10" stroke-linecap="round" stroke-linejoin="round"/>
<path d="M37.07 50.5869H30.7904V53.563H37.07V50.5869Z" fill="#9A9A9A"/>
<path d="M44.0338 53.563H39.6991V50.5869L44.0338 53.563Z" fill="#9A9A9A"/>
<path d="M43.6674 50.7627H47.4596" stroke="#9A9A9A" stroke-miterlimit="10" stroke-linecap="round" stroke-linejoin="round"/>
<path d="M45.3288 52.126H47.4595" stroke="#9A9A9A" stroke-miterlimit="10" stroke-linecap="round" stroke-linejoin="round"/>
<path d="M27.9706 48.2949V56.9838" stroke="#AEAEAE" stroke-miterlimit="10" stroke-linecap="round" stroke-linejoin="round"/>
<path d="M160.063 108.032H133.918V110.114H160.063V108.032Z" fill="#1C1C1B"/>
<path d="M97.5109 105.502C101.938 102.242 103.561 96.2703 101.166 91.1733C100.164 89.0426 98.542 87.2247 97.7161 85.0158C96.4309 81.5755 97.2568 77.7442 98.0973 74.1719" stroke="black" stroke-width="6" stroke-miterlimit="10" stroke-linecap="round" stroke-linejoin="round"/>
<path d="M113.305 106.811H84.7806C84.1697 106.811 83.6761 106.317 83.6761 105.706V105.481C83.6761 104.871 84.1697 104.377 84.7806 104.377H113.305C113.916 104.377 114.41 104.871 114.41 105.481V105.706C114.41 106.317 113.916 106.811 113.305 106.811Z" fill="black"/>
<path d="M146.99 93.3614H52.8986C51.8137 93.3614 50.939 92.4818 50.939 91.4018V36.4782C50.939 35.3933 51.8186 34.5186 52.8986 34.5186H146.99C148.075 34.5186 148.95 35.3982 148.95 36.4782V91.4018C148.95 92.4867 148.075 93.3614 146.99 93.3614Z" fill="#ABC8F4"/>
<path d="M148.447 39.1406H51.4229V88.8939H148.447V39.1406Z" fill="#0464F4"/>
<path d="M71.0584 43.9932H60.3268V45.5667H71.0584V43.9932Z" fill="#ABC8F4"/>
<path d="M91.0604 43.9932H73.0425V45.5667H91.0604V43.9932Z" fill="#ABC8F4"/>
<path d="M114.249 43.9932H93.1814V45.5667H114.249V43.9932Z" fill="#ABC8F4"/>
<path d="M124.584 43.9932H116.501V45.5667H124.584V43.9932Z" fill="#ABC8F4"/>
<path d="M92.1207 47.8682H89.604V49.4417H92.1207V47.8682Z" fill="#ABC8F4"/>
<path d="M98.0828 47.8682H96.8904V49.4417H98.0828V47.8682Z" fill="#ABC8F4"/>
<path d="M118.486 47.8682H99.1433V49.4417H118.486V47.8682Z" fill="#ABC8F4"/>
<path d="M126.549 47.8682H120.87V49.4417H126.549V47.8682Z" fill="#ABC8F4"/>
<path d="M95.4343 47.8682H93.1814V49.4417H95.4343V47.8682Z" fill="#ABC8F4"/>
<path d="M88.8124 47.8682H78.4767V49.4417H88.8124V47.8682Z" fill="#ABC8F4"/>
<path d="M77.2842 47.8682H63.772V49.4417H77.2842V47.8682Z" fill="#ABC8F4"/>
<path d="M62.5797 47.8682H60.3268V49.4417H62.5797V47.8682Z" fill="#ABC8F4"/>
<path d="M62.3158 51.748H60.3268V53.3216H62.3158V51.748Z" fill="#ABC8F4"/>
<path d="M83.5101 51.748H64.0359V53.3216H83.5101V51.748Z" fill="#ABC8F4"/>
<path d="M116.37 51.748H85.6311V53.3216H116.37V51.748Z" fill="#ABC8F4"/>
<path d="M126.554 51.748H117.43V53.3216H126.554V51.748Z" fill="#ABC8F4"/>
<path d="M124.32 55.625H100.736V57.1986H124.32V55.625Z" fill="#ABC8F4"/>
<path d="M64.036 55.625H60.3268V57.1986H64.036V55.625Z" fill="#ABC8F4"/>
<path d="M84.1747 55.625H65.6241V57.1986H84.1747V55.625Z" fill="#ABC8F4"/>
<path d="M97.423 55.625H85.3671V57.1986H97.423V55.625Z" fill="#ABC8F4"/>
<path d="M76.6197 59.5039H73.0425V61.0775H76.6197V59.5039Z" fill="#ABC8F4"/>
<path d="M71.4543 59.5039H60.3268V61.0775H71.4543V59.5039Z" fill="#ABC8F4"/>
<path d="M81.2573 59.5039H77.944V61.0775H81.2573V59.5039Z" fill="#ABC8F4"/>
<path d="M97.5549 59.5039H82.5815V61.0775H97.5549V59.5039Z" fill="#ABC8F4"/>
<path d="M106.435 59.5039H99.676V61.0775H106.435V59.5039Z" fill="#ABC8F4"/>
<path d="M116.237 59.5039H109.347V61.0775H116.237V59.5039Z" fill="#ABC8F4"/>
<path d="M124.316 59.5039H119.678V61.0775H124.316V59.5039Z" fill="#ABC8F4"/>
<path d="M111.771 63.3789H104.221V64.9525H111.771V63.3789Z" fill="#ABC8F4"/>
<path d="M64.2999 63.3789H60.3268V64.9525H64.2999V63.3789Z" fill="#ABC8F4"/>
<path d="M86.0269 63.3789H67.0804V64.9525H86.0269V63.3789Z" fill="#ABC8F4"/>
<path d="M92.7854 63.3789H88.9443V64.9525H92.7854V63.3789Z" fill="#ABC8F4"/>
<path d="M100.731 63.3789H94.6375V64.9525H100.731V63.3789Z" fill="#ABC8F4"/>
<path d="M124.716 63.3789H115.441V64.9525H124.716V63.3789Z" fill="#ABC8F4"/>
<path d="M71.0584 66.8701H60.3268V68.4437H71.0584V66.8701Z" fill="#ABC8F4"/>
<path d="M91.0604 66.8701H73.0425V68.4437H91.0604V66.8701Z" fill="#ABC8F4"/>
<path d="M114.249 66.8701H93.1814V68.4437H114.249V66.8701Z" fill="#ABC8F4"/>
<path d="M124.584 66.8701H116.501V68.4437H124.584V66.8701Z" fill="#ABC8F4"/>
<path d="M92.1207 70.75H89.604V72.3236H92.1207V70.75Z" fill="#ABC8F4"/>
<path d="M98.0828 70.75H96.8904V72.3236H98.0828V70.75Z" fill="#ABC8F4"/>
<path d="M118.486 70.75H99.1433V72.3236H118.486V70.75Z" fill="#ABC8F4"/>
<path d="M126.549 70.75H120.87V72.3236H126.549V70.75Z" fill="#ABC8F4"/>
<path d="M95.4343 70.75H93.1814V72.3236H95.4343V70.75Z" fill="#ABC8F4"/>
<path d="M88.8123 70.75H78.4766V72.3236H88.8123V70.75Z" fill="#ABC8F4"/>
<path d="M77.2842 70.75H63.772V72.3236H77.2842V70.75Z" fill="#ABC8F4"/>
<path d="M62.5797 70.75H60.3268V72.3236H62.5797V70.75Z" fill="#ABC8F4"/>
<path d="M62.3158 74.625H60.3268V76.1986H62.3158V74.625Z" fill="#ABC8F4"/>
<path d="M83.5101 74.625H64.0359V76.1986H83.5101V74.625Z" fill="#ABC8F4"/>
<path d="M116.37 74.625H85.6311V76.1986H116.37V74.625Z" fill="#ABC8F4"/>
<path d="M126.554 74.625H117.43V76.1986H126.554V74.625Z" fill="#ABC8F4"/>
<path d="M124.32 78.502H100.736V80.0755H124.32V78.502Z" fill="#ABC8F4"/>
<path d="M64.036 78.502H60.3268V80.0755H64.036V78.502Z" fill="#ABC8F4"/>
<path d="M84.1747 78.502H65.6241V80.0755H84.1747V78.502Z" fill="#ABC8F4"/>
<path d="M97.423 78.502H85.3671V80.0755H97.423V78.502Z" fill="#ABC8F4"/>
<path d="M76.6197 82.3809H73.0425V83.9544H76.6197V82.3809Z" fill="#ABC8F4"/>
<path d="M71.4543 82.3809H60.3268V83.9544H71.4543V82.3809Z" fill="#ABC8F4"/>
<path d="M81.2573 82.3809H77.944V83.9544H81.2573V82.3809Z" fill="#ABC8F4"/>
<path d="M97.5549 82.3809H82.5815V83.9544H97.5549V82.3809Z" fill="#ABC8F4"/>
<path d="M106.435 82.3809H99.676V83.9544H106.435V82.3809Z" fill="#ABC8F4"/>
<path d="M116.237 82.3809H109.347V83.9544H116.237V82.3809Z" fill="#ABC8F4"/>
<path d="M124.316 82.3809H119.678V83.9544H124.316V82.3809Z" fill="#ABC8F4"/>
<path d="M111.771 86.2559H104.221V87.8294H111.771V86.2559Z" fill="#ABC8F4"/>
<path d="M64.2999 86.2559H60.3268V87.8294H64.2999V86.2559Z" fill="#ABC8F4"/>
<path d="M86.0269 86.2559H67.0804V87.8294H86.0269V86.2559Z" fill="#ABC8F4"/>
<path d="M92.7854 86.2559H88.9443V87.8294H92.7854V86.2559Z" fill="#ABC8F4"/>
<path d="M100.731 86.2559H94.6375V87.8294H100.731V86.2559Z" fill="#ABC8F4"/>
<path d="M124.716 86.2559H115.441V87.8294H124.716V86.2559Z" fill="#ABC8F4"/>
<path d="M27.1155 88.8805C24.9555 86.9795 23.0007 84.7413 21.7057 82.1464C21.0704 80.8758 20.5964 79.5221 20.2983 78.1294C20.1468 77.4354 20.0442 76.7317 19.9855 76.0231C19.9562 75.6664 20.1321 74.2785 19.9366 74.0439C21.3538 75.7592 23.4357 76.5851 24.9408 78.1343C26.4557 79.6932 27.8534 81.731 28.7917 83.6955C29.3439 84.8488 29.7544 86.0803 29.945 87.346C30.0329 87.9373 30.4239 90.1022 29.8668 90.5371C29.6909 90.674 29.1875 90.3759 29.0311 90.2977C28.3176 89.9361 27.7117 89.4034 27.1155 88.8805Z" fill="#0464F4"/>
<path d="M32.6083 103.858C32.2907 94.9301 28.9822 86.1337 23.3281 79.2139" stroke="black" stroke-width="0.5" stroke-miterlimit="10" stroke-linecap="round" stroke-linejoin="round"/>
<path d="M29.2462 91.5931C28.1857 90.6059 26.7832 90.0293 25.3562 89.7849C23.9243 89.5406 22.4583 89.6139 21.0215 89.7947C19.3062 90.0146 17.6154 90.3909 15.9685 90.9138C16.8139 92.3945 18.3142 93.4208 19.9122 94.0219C21.2317 94.5154 22.6391 94.7549 24.0514 94.7598C26.1234 94.7647 28.1808 94.2613 30.2528 94.3249C30.6096 94.3346 30.9272 94.3053 31.2009 94.5594C30.8784 93.4403 30.0916 92.3799 29.2462 91.5931Z" fill="#0464F4"/>
<path d="M31.1032 94.4284C29.8619 93.1236 28.2737 92.4199 26.49 92.1755C24.7062 91.9312 22.8932 92.0876 21.0997 92.2488" stroke="black" stroke-width="0.5" stroke-miterlimit="10" stroke-linecap="round" stroke-linejoin="round"/>
<path d="M39.6502 90.1508C38.9709 91.221 37.9838 92.0957 37.2654 93.1367C36.7963 93.8159 36.5372 94.588 36.161 95.3113C35.6772 96.2447 35.1103 97.139 34.3724 97.8916C34.2649 97.9991 34.1329 98.1164 33.9814 98.0919C33.8592 98.0724 33.7713 97.9698 33.698 97.8671C33.1018 97.0022 33.1702 95.9759 33.2386 94.979C33.3168 93.8013 33.4683 92.6333 33.6882 91.4751C33.8837 90.4293 34.1476 89.3689 34.6851 88.4452C35.1934 87.5754 35.7554 86.9645 36.4542 86.2315C37.4511 85.1906 38.2574 83.9689 38.8341 82.6445C39.3472 83.6463 39.8652 84.6628 40.1682 85.7477C40.4712 86.8326 40.5445 88.0152 40.1731 89.0805C40.0411 89.4666 39.8603 89.8185 39.6502 90.1508Z" fill="#0464F4"/>
<path d="M33.4146 102.511C33.1263 100.258 33.8837 98.0494 34.1281 95.8307C34.392 93.4753 35.1592 91.1784 36.3809 89.1455" stroke="black" stroke-width="0.5" stroke-miterlimit="10" stroke-linecap="round" stroke-linejoin="round"/>
<path d="M22.7026 100.814C23.2695 104.343 25.4784 107.983 28.4692 109.816C28.6793 109.943 28.9236 110.007 29.1729 110.007H35.8581C36.1073 110.007 36.3517 109.943 36.5618 109.816C39.5526 107.988 41.7614 104.343 42.3283 100.814H22.7026Z" fill="#1C1C1B"/>
<path d="M162.736 110.124H16.77V113.721H162.736V110.124Z" fill="#ABC8F4"/>
<path d="M162.736 120.626H16.77V124.223H162.736V120.626Z" fill="#ABC8F4"/>
<path d="M27.267 111.331H25.1265V150.289H27.267V111.331Z" fill="#ABC8F4"/>
<path d="M154.17 111.331H152.029V150.289H154.17V111.331Z" fill="#ABC8F4"/>
<path d="M104.167 58.8798C105.203 58.1077 106.366 57.6288 107.358 56.7931C108.311 55.9917 109.112 55.0339 109.958 54.12C111.116 52.8739 114.263 49.6729 115.739 51.9111C117.137 54.0369 117.967 56.2849 118.075 58.8212C118.138 60.2872 118.143 61.7924 117.928 63.2389C117.743 64.4704 117.401 65.6628 116.799 66.7526C116.272 67.7104 115.553 68.5558 114.766 69.3084C114.087 69.9584 113.193 70.9357 112.279 71.2338C110.222 71.9033 107.783 71.7763 105.755 71.0921C105.007 70.8429 104.274 70.5106 103.654 70.0219C101.885 68.6438 101.245 66.215 101.342 63.9768C101.381 63.0825 101.523 62.1736 101.914 61.3672C102.408 60.3557 103.258 59.5542 104.167 58.8798Z" fill="#1C1C1B"/>
<path d="M40.2856 64.747C40.1976 64.488 40.1097 64.229 40.0021 63.97C39.489 62.7336 38.5947 61.6145 37.5538 60.7837C36.8354 60.2071 36.0242 59.7575 35.2961 59.2004C34.4067 58.5211 33.4342 57.9689 32.5448 57.2798C31.5136 56.4833 30.4874 55.6916 29.4563 54.895C29.2266 54.7191 28.9431 54.5334 28.6695 54.6312C28.4398 54.7142 28.3274 54.9732 28.2834 55.2127C28.1026 56.1412 28.6939 56.9475 29.3536 57.5486C30.2088 58.3256 31.2204 59.0391 31.8557 60.0214C33.1214 61.9859 30.4678 61.4777 29.5345 60.4465C29.0751 59.9383 28.7868 59.303 28.5131 58.6726C28.0684 57.6464 27.9169 56.5322 27.6237 55.4619C27.5113 55.0514 27.1497 52.955 26.2945 53.8639C26.143 54.0252 26.0941 54.2549 26.0599 54.4748C25.967 55.1052 25.9768 55.7503 26.0794 56.3807C25.8693 56.2292 25.5907 56.4637 25.4735 56.6983C25.1998 57.2456 25.3366 57.7832 25.019 58.2817C24.6818 58.8192 24.501 59.4301 24.5694 60.0654C24.628 60.6127 24.8528 61.1209 25.0972 61.6145C25.8546 63.1343 26.9835 65.2699 28.4642 66.1642C30.0036 67.0927 31.8802 67.7573 33.1117 69.1158C33.4879 69.5312 33.6834 70.0786 33.8642 70.6112C36.3272 77.8047 37.5098 85.4429 39.4011 92.7976C40.4029 96.6876 41.4829 100.607 43.0906 104.296C43.7259 105.753 45.4412 108.831 46.79 109.726C48.2268 110.684 48.5444 109.501 50.3086 109.13C51.8088 108.812 53.0061 107.717 54.0666 106.608C55.689 104.907 57.6829 102.557 57.7611 100.069C57.8246 98.0853 57.0622 95.5832 56.1924 93.8288C55.9676 93.3792 55.7281 92.9443 55.4838 92.5093C53.0354 88.1893 49.5315 84.446 47.3667 80.0185C46.8633 78.9922 46.3746 77.9562 45.8859 76.9251C44.4981 73.9685 43.1591 70.9875 41.7614 68.031C41.4096 67.293 41.0577 66.5551 40.701 65.8221C40.5299 65.4605 40.4078 65.1037 40.2856 64.747Z" fill="white" stroke="#1C1C1B" stroke-width="0.5" stroke-miterlimit="10" stroke-linecap="round" stroke-linejoin="round"/>
<path d="M26.0844 56.2246C26.2652 56.8795 26.446 57.5294 26.6268 58.1843C27.0031 59.5428 27.438 60.9942 28.5473 61.8738" stroke="#1C1C1B" stroke-width="0.5" stroke-miterlimit="10" stroke-linecap="round" stroke-linejoin="round"/>
<path d="M25.1265 58.2373C25.4881 59.9966 26.226 61.6826 27.2767 63.1388C27.3695 63.2659 27.4624 63.393 27.5894 63.4858" stroke="#1C1C1B" stroke-width="0.5" stroke-miterlimit="10" stroke-linecap="round" stroke-linejoin="round"/>
<path d="M40.2318 64.4229C40.2074 64.9409 40.1341 65.454 40.0119 65.9524L40.2318 64.4229Z" fill="white"/>
<path d="M40.2318 64.4229C40.2074 64.9409 40.1341 65.454 40.0119 65.9524" stroke="#1C1C1B" stroke-width="0.5" stroke-miterlimit="10" stroke-linecap="round" stroke-linejoin="round"/>
<path d="M104.983 54.6288C104.968 53.9007 104.963 53.1774 104.944 52.4737L91.4952 52.4053C91.5636 56.564 91.3535 60.4246 91.0994 64.0263C90.9772 65.7709 90.8648 66.9975 90.21 68.4684C92.9808 69.6217 94.9453 71.0731 97.9508 71.381C100.668 71.6595 104.167 71.7231 106.576 70.4427C104.602 65.2284 105.1 59.8773 104.983 54.6288Z" fill="#7E004A"/>
<path d="M122.771 134.895C123.465 134.768 124.149 134.592 124.799 134.313C127.013 133.365 128.665 131.21 129.007 128.83C129.5 125.394 127.472 122.145 126.827 118.734C126.519 117.111 126.519 115.386 125.757 113.92C125.41 113.251 124.916 112.664 124.565 112C123.304 109.629 124.306 107.347 124.218 104.884C124.135 102.568 123.91 100.256 123.924 97.9058C123.934 96.3322 123.944 94.7538 124.213 93.2046C124.491 91.592 125.043 90.0331 125.346 88.4253C126.852 80.4694 122.434 70.598 115.064 66.9279C108.746 63.7808 101.503 62.9207 94.4468 63.0722C88.3577 63.2041 74.9237 66.4246 71.2341 71.2675C66.3912 77.6155 68.9764 86.8175 73.9463 92.281C73.052 97.3536 72.2115 102.436 71.6642 107.557C71.1901 112.019 71.7619 116.794 70.1346 121.016C69.8267 121.808 69.4651 122.589 69.3282 123.43C69.2012 124.212 69.2794 125.008 69.3918 125.79C69.9928 129.959 71.8987 134.245 75.5834 136.278C78.2614 137.753 81.4672 137.836 84.5264 137.807C96.6068 137.69 108.643 136.434 120.655 135.173C121.364 135.095 122.072 135.022 122.771 134.895Z" fill="#7E004A"/>
<path d="M88.0206 63.6839C81.7898 64.6759 75.95 67.178 70.9117 71.0875C67.613 73.6482 64.7249 76.683 62.0322 79.8643C59.4519 82.9137 57.1258 87.0822 54.0666 89.599C52.5077 87.2826 51.1198 84.8441 49.9225 82.3224C49.6147 81.6774 49.3117 81.0176 48.8523 80.4703C48.5249 80.0793 48.1193 79.7568 47.8359 79.3317C47.4009 78.6768 47.2983 77.8656 47.0344 77.1277C46.7705 76.3898 46.2281 75.6323 45.4462 75.5688C42.9148 77.9682 38.9515 78.1832 36.1758 80.2993C36.0292 80.4116 35.8825 80.5387 35.819 80.7097C35.7653 80.871 35.7946 81.0469 35.8239 81.2131C36.3224 83.9693 36.7426 86.7548 37.2558 89.4915C37.7591 92.1744 37.9302 95.1993 38.7902 97.7894C39.5966 101.513 40.9405 105.271 43.638 107.969C44.7767 109.107 46.8096 110.055 48.3196 110.657C50.2842 111.438 52.5126 111.57 54.6042 111.521C58.9144 111.419 63.21 109.933 66.5526 107.192C67.9307 106.063 69.1426 104.748 70.3497 103.443C72.5439 101.068 74.743 98.9476 76.2139 96.079C77.206 94.1487 78.2713 92.2477 79.3269 90.3467C79.9768 89.1836 83.6713 81.0958 85.4061 81.4574C86.2955 81.6431 87.2192 81.7897 88.1574 81.9168C88.1574 79.5858 88.3089 77.2596 88.4164 74.9286C88.4751 73.6824 88.5337 72.4363 88.5435 71.1901C88.5533 70.3398 88.1086 69.1279 88.3138 68.346C88.8074 66.4938 89.7359 64.7639 91.0114 63.332C90.0096 63.4053 89.0078 63.5275 88.0206 63.6839Z" fill="#7E004A"/>
<path d="M103.248 63.9609C106.082 64.347 106.239 64.4252 109.063 64.7526C118.739 65.8815 127.8 76.1146 133.503 83.1468C137.979 88.6641 146.487 98.6235 144.229 106.394C142.822 111.246 136.704 112.473 132.34 111.696C126.065 110.582 121.672 105.578 118.016 100.74C116.726 99.0291 106.532 81.3338 105.999 81.4462C105.11 81.6319 104.186 81.7785 103.248 81.9055V63.9609Z" fill="#7E004A"/>
<path d="M100.697 40.3053C99.5438 37.8668 97.6868 36.303 95.2287 35.1986C93.6991 34.5144 91.9496 34.1919 90.337 34.6415C89.5746 34.8565 88.866 35.2328 88.1721 35.6091C87.6052 35.912 87.0383 36.2199 86.5545 36.6451C85.3426 37.7153 84.5314 39.6163 84.1893 41.1606C83.901 42.4507 83.6762 43.7506 83.5149 45.0603C83.1093 46.0963 82.6157 47.0932 81.8973 47.8996C81.6237 48.2074 81.7165 48.6912 82.0977 48.8427C82.4593 48.9893 82.8356 49.092 83.2217 49.1457C83.2021 49.9716 83.207 50.7975 83.2412 51.6234C83.3194 53.6612 83.6908 55.9482 85.3524 57.1309C88.2405 59.1931 94.6325 57.3996 97.1395 55.3765C99.4168 53.5439 100.868 50.8121 101.455 47.9484C101.968 45.4121 101.816 42.6657 100.697 40.3053Z" fill="white" stroke="#1C1C1B" stroke-width="0.5" stroke-miterlimit="10" stroke-linecap="round" stroke-linejoin="round"/>
<path d="M83.207 50.666C83.5589 50.9006 84.0134 50.9837 84.4239 50.881L83.207 50.666Z" fill="white"/>
<path d="M83.207 50.666C83.5589 50.9006 84.0134 50.9837 84.4239 50.881" stroke="#1C1C1B" stroke-width="0.5" stroke-miterlimit="10" stroke-linecap="round" stroke-linejoin="round"/>
<path d="M85.8459 43.9901C85.7286 43.7702 85.6308 43.5405 85.5527 43.2864C85.3279 42.5485 85.7286 42.1087 85.02 41.4685C84.8978 41.3561 84.1501 41.014 83.6321 40.9652C83.3878 40.9407 83.2167 40.6964 83.2754 40.452C83.9644 37.5688 86.3737 35.2377 89.125 34.0453C92.106 32.7552 95.4486 32.6037 98.6935 32.6819C101.108 32.7406 103.737 33.0093 105.491 34.6709C107.49 36.567 107.759 39.504 108.76 41.9328C109.816 44.4935 111.971 46.458 113.677 48.5789C115.377 50.6949 116.799 53.1335 117.205 55.8213C117.503 57.7858 117.264 60.1803 116.071 61.8321C114.854 63.5181 112.675 64.3391 110.867 65.2187C108.003 66.6066 105.403 68.6444 102.305 69.3774C99.1235 70.13 95.6978 69.3921 92.8781 67.7404C91.3289 66.8314 89.8091 65.4093 89.8091 63.6158C89.8091 62.9072 90.0486 62.2182 90.0388 61.5145C90.0241 60.3758 89.3644 59.3398 88.5972 58.4993C87.8299 57.6538 86.9308 56.9306 86.2564 56.0118C85.0982 54.4285 85.0933 52.3614 86.0071 50.6705C86.662 49.4537 87.3901 48.4763 87.2582 47.0298C87.1458 45.7934 86.403 45.0408 85.8459 43.9901Z" fill="#1C1C1B"/>
<path d="M98.7816 27.7598C99.5977 27.2222 100.648 27.2222 101.616 27.3542C102.554 27.4813 103.561 27.7647 104.118 28.5319C106.034 31.1513 102.026 34.6259 99.4413 34.147C96.3919 33.585 96.4994 29.2747 98.7816 27.7598Z" fill="#1C1C1B"/>
<path d="M72.5145 101.366C73.2036 98.1212 73.7069 97.7742 74.396 94.5342C74.7625 92.814 75.5346 91.4261 76.2579 89.8232" stroke="black" stroke-width="0.5" stroke-miterlimit="10" stroke-linecap="round" stroke-linejoin="round"/>
<path d="M124.012 107.503C123.719 102.773 122.141 97.7538 121.041 93.1455" stroke="black" stroke-width="0.5" stroke-miterlimit="10" stroke-linecap="round" stroke-linejoin="round"/>
<path d="M106.556 74.6301C106.063 74.5813 105.56 74.4982 105.081 74.4982C104.201 74.4933 103.351 74.7963 102.481 74.938C101.611 75.0846 100.634 75.0455 99.9641 74.4689C99.2164 73.8287 99.2751 72.4653 99.925 71.7811C100.731 70.9357 102.349 70.7597 103.414 70.5105C104.343 70.2906 105.286 70.0218 106.048 69.4501C107.382 68.4531 107.998 66.2687 109.567 65.6139C110.969 65.0274 113.3 65.9706 113.584 67.5637C113.789 68.7219 112.983 69.8215 112.079 70.574C111.175 71.3266 110.104 71.9228 109.435 72.8953C109.107 73.3693 108.878 73.9362 108.418 74.2832C107.891 74.6888 107.236 74.6937 106.556 74.6301Z" fill="#1C1C1B"/>
<path d="M112.743 61.3531C112.704 60.5859 112.548 59.76 111.971 59.2518C111.624 58.9488 111.17 58.8022 110.725 58.6702C103.937 56.652 96.6654 56.2903 89.7163 57.6293C88.734 57.8199 87.7322 58.0496 86.8966 58.6067C85.4745 59.5548 84.7659 61.3483 84.8245 63.0587C84.8832 64.7691 85.6211 66.3915 86.5936 67.7989C90.4151 73.3504 97.4962 75.4078 103.898 73.6876C108.844 72.3535 113.007 66.3817 112.743 61.3531Z" fill="#7E004A"/>
<path d="M97.0124 74.5023C92.409 74.2335 87.3853 71.8439 86.1489 67.0205" stroke="black" stroke-width="0.5" stroke-miterlimit="10" stroke-linecap="round" stroke-linejoin="round"/>
<path d="M54.0275 89.5898C53.8613 90.1812 53.7782 90.7969 53.7782 91.4127C53.7782 91.8769 53.8222 92.3509 53.7391 92.8103C53.5828 93.6802 52.9914 94.3985 52.5321 95.156C51.7111 96.5048 51.2762 98.0832 51.2859 99.6568" stroke="black" stroke-width="0.5" stroke-miterlimit="10" stroke-linecap="round" stroke-linejoin="round"/>
<path d="M47.87 79.0625C47.2298 80.1376 45.9788 80.6507 44.8108 81.0954C42.1475 82.1119 39.362 83.5682 36.6986 84.5798" stroke="black" stroke-width="0.5" stroke-miterlimit="10" stroke-linecap="round" stroke-linejoin="round"/>
<path d="M51.7355 96.5137C52.146 97.7843 52.5565 99.0646 52.7227 100.394" stroke="black" stroke-width="0.5" stroke-miterlimit="10" stroke-linecap="round" stroke-linejoin="round"/>
<path d="M48.7349 108.867C49.3311 109.087 49.9273 109.307 50.5235 109.532" stroke="black" stroke-width="0.5" stroke-miterlimit="10" stroke-linecap="round" stroke-linejoin="round"/>
<path d="M37.6028 84.1393C37.4073 82.7025 37.119 81.2756 36.7427 79.8779" stroke="black" stroke-width="0.5" stroke-miterlimit="10" stroke-linecap="round" stroke-linejoin="round"/>
<path d="M38.888 83.6951C38.6632 82.1851 38.3162 80.6897 37.8519 79.2383" stroke="black" stroke-width="0.5" stroke-miterlimit="10" stroke-linecap="round" stroke-linejoin="round"/>
<path d="M38.9075 78.7334C39.0639 79.1439 39.1958 79.5642 39.3033 79.9893C39.4353 80.5024 39.5281 81.0253 39.6601 81.5385C39.7969 82.076 39.9728 82.6087 40.1438 83.1365" stroke="black" stroke-width="0.5" stroke-miterlimit="10" stroke-linecap="round" stroke-linejoin="round"/>
<path d="M39.7872 78.3057C39.7335 78.4669 39.8312 78.638 39.9192 78.7846C40.6131 79.977 40.7011 81.4284 41.2533 82.6941" stroke="black" stroke-width="0.5" stroke-miterlimit="10" stroke-linecap="round" stroke-linejoin="round"/>
<path d="M41.5757 77.6348C42.0547 79.0422 42.5287 80.4447 43.0076 81.8521" stroke="black" stroke-width="0.5" stroke-miterlimit="10" stroke-linecap="round" stroke-linejoin="round"/>
<path d="M42.3186 77.3125C42.8073 77.9478 43.1933 78.6613 43.4572 79.4236C43.6967 80.1078 43.8335 80.831 44.1658 81.4761" stroke="black" stroke-width="0.5" stroke-miterlimit="10" stroke-linecap="round" stroke-linejoin="round"/>
<path d="M43.7405 76.5781C44.0581 77.1645 44.6152 77.5848 44.9426 78.1664C45.099 78.44 45.2016 78.743 45.3482 79.0216C45.5584 79.4272 45.8663 79.7937 45.9591 80.2433C45.9787 80.3459 46.008 80.4778 46.1106 80.5121" stroke="black" stroke-width="0.5" stroke-miterlimit="10" stroke-linecap="round" stroke-linejoin="round"/>
<path d="M44.7815 75.9679C44.7913 75.9386 44.7278 75.9337 44.718 75.9631C44.7082 75.9924 44.7278 76.0266 44.7473 76.051C45.0112 76.3931 45.2702 76.7352 45.5194 77.087C46.1547 77.9716 46.7558 78.9098 46.9953 79.9654" stroke="black" stroke-width="0.5" stroke-miterlimit="10" stroke-linecap="round" stroke-linejoin="round"/>
<path d="M136.821 108.152C137.93 108.314 139.108 107.762 139.695 106.804" stroke="black" stroke-width="0.5" stroke-miterlimit="10" stroke-linecap="round" stroke-linejoin="round"/>
<path d="M97.1394 32.3916C99.1137 32.9487 101.205 33.5107 103.18 32.9634" stroke="#7E004A" stroke-miterlimit="10" stroke-linecap="round" stroke-linejoin="round"/>
<path d="M123.338 150.582C122.942 150.719 122.541 150.851 122.141 150.978C115.035 153.294 107.842 155.63 100.384 156.104C94.2464 156.495 88.1036 155.616 82.0195 154.736C75.0508 153.729 68.2678 153.593 66.6062 145.857C65.6875 141.576 65.3699 137.163 65.6729 132.789C65.839 130.38 66.23 127.893 67.5934 125.899C68.4046 124.716 69.5091 123.778 70.5011 122.742C78.6964 114.17 75.0899 101.645 81.9852 93.269C88.5679 85.2692 99.9396 83.3486 109.117 87.825C114.952 90.6692 120.215 95.7369 121.178 102.329C122.273 109.836 121.94 117.18 126.857 123.626C128.068 125.215 129.53 126.632 130.448 128.401C133.278 133.835 133.2 144.293 127.981 148.31C126.612 149.365 124.99 150.02 123.338 150.582Z" fill="#1C1C1B"/>
<path d="M157.869 108.114H150.538L148.144 94.4453H160.566L157.869 108.114Z" fill="#1C1C1B"/>
<path d="M156.491 98.7081C157.722 98.107 159.056 97.7258 160.42 97.589C160.737 97.5548 161.065 97.6183 161.338 97.7942C162.062 98.2585 161.861 99.0355 161.646 99.6806L160.317 103.712C160.161 104.181 159.716 104.494 159.222 104.46C157.082 104.313 154.927 104.401 152.806 104.719" stroke="#1C1C1B" stroke-miterlimit="10" stroke-linecap="round" stroke-linejoin="round"/>
<path d="M124.286 26.2014H120.421V22.3359H124.286V26.2014Z" fill="#1C1C1B"/>
<path d="M133.376 26.2008H126.182L129.93 21.9932L133.376 26.2008ZM127.472 25.6241H132.149L129.906 22.8875L127.472 25.6241Z" fill="#A3A3A3"/>
<path d="M138.582 21.9628L134.652 25.9805L135.068 26.3871L138.998 22.3695L138.582 21.9628Z" fill="#AEAEAE"/>
<path d="M140.851 21.9657L136.922 25.9834L137.337 26.39L141.267 22.3723L140.851 21.9657Z" fill="#AEAEAE"/>
<path d="M144.044 23.7584V24.1201H143.887C143.765 24.1201 143.687 24.1885 143.687 24.3449V25.3907C143.687 25.8305 143.452 26.0602 142.998 26.0602H142.798V25.7034H142.905C143.14 25.7034 143.252 25.5764 143.252 25.3516V24.3595C143.252 24.1005 143.33 23.9979 143.496 23.9441C143.33 23.8904 143.252 23.7829 143.252 23.5288V22.5367C143.252 22.3119 143.145 22.1849 142.905 22.1849H142.798V21.8281H142.998C143.452 21.8281 143.687 22.0578 143.687 22.4976V23.5385C143.687 23.6998 143.765 23.7633 143.887 23.7633H144.044V23.7584Z" fill="#A3A3A3"/>
<path d="M146.961 26.4785C146.106 26.4785 145.437 25.4474 145.437 24.1328C145.437 22.8182 146.106 21.7871 146.961 21.7871C147.816 21.7871 148.486 22.8182 148.486 24.1328C148.486 25.4474 147.816 26.4785 146.961 26.4785ZM146.961 22.3686C146.517 22.3686 146.018 23.0919 146.018 24.1328C146.018 25.1737 146.517 25.897 146.961 25.897C147.406 25.897 147.904 25.1737 147.904 24.1328C147.904 23.0919 147.406 22.3686 146.961 22.3686Z" fill="#AEAEAE"/>
<path d="M150.612 26.4785C149.756 26.4785 149.087 25.4474 149.087 24.1328C149.087 22.8182 149.756 21.7871 150.612 21.7871C151.467 21.7871 152.136 22.8182 152.136 24.1328C152.136 25.4474 151.467 26.4785 150.612 26.4785ZM150.612 22.3686C150.167 22.3686 149.668 23.0919 149.668 24.1328C149.668 25.1737 150.167 25.897 150.612 25.897C151.056 25.897 151.555 25.1737 151.555 24.1328C151.555 23.0919 151.061 22.3686 150.612 22.3686Z" fill="#A3A3A3"/>
<path d="M108.585 11.1709L111.101 13.8391L108.585 15.6131" stroke="#A3A3A3" stroke-miterlimit="10" stroke-linecap="round" stroke-linejoin="round"/>
<path d="M110.657 11.1709L113.173 13.8391L110.657 15.6131" stroke="#A3A3A3" stroke-miterlimit="10" stroke-linecap="round" stroke-linejoin="round"/>
<path d="M116.135 15.315C116.872 15.315 117.469 14.3873 117.469 13.2429C117.469 12.0986 116.872 11.1709 116.135 11.1709C115.398 11.1709 114.801 12.0986 114.801 13.2429C114.801 14.3873 115.398 15.315 116.135 15.315Z" stroke="#A3A3A3" stroke-miterlimit="10" stroke-linecap="round" stroke-linejoin="round"/>
<path d="M120.577 11.4697V15.6138" stroke="#A3A3A3" stroke-miterlimit="10" stroke-linecap="round" stroke-linejoin="round"/>
<path d="M124.873 11.7676H122.502V15.6184H124.873V11.7676Z" fill="#1C1C1B"/>
<path d="M130.199 11.7676H126.646V15.6184H130.199V11.7676Z" stroke="#A3A3A3" stroke-miterlimit="10" stroke-linecap="round" stroke-linejoin="round"/>
<path d="M135.824 11.7676H131.827V15.6184H135.824V11.7676Z" fill="#1C1C1B"/>
<path d="M138.502 10.2527C139.006 10.1061 139.475 10.6534 139.528 11.1763C139.582 11.6992 139.382 12.2172 139.348 12.7401C139.313 13.263 139.543 13.8934 140.056 14.0009C139.773 13.9032 139.47 14.1426 139.377 14.4261C139.284 14.7095 139.343 15.0174 139.382 15.3155C139.45 15.8921 139.426 16.5128 139.103 16.9917C138.776 17.4706 138.072 17.7296 137.593 17.4071" stroke="#A3A3A3" stroke-miterlimit="10" stroke-linecap="round" stroke-linejoin="round"/>
<path d="M141.884 10.4385C142.783 12.5887 142.793 15.0957 141.908 17.2508" stroke="#A3A3A3" stroke-miterlimit="10" stroke-linecap="round" stroke-linejoin="round"/>
<path d="M143.702 10.2734C144.865 12.7804 144.787 15.8249 143.502 18.2684" stroke="#AEAEAE" stroke-miterlimit="10" stroke-linecap="round" stroke-linejoin="round"/>
<path d="M106 10.2527C105.496 10.1061 105.027 10.6534 104.973 11.1763C104.92 11.6992 105.12 12.2172 105.154 12.7401C105.188 13.263 104.964 13.8934 104.446 14.0009C104.729 13.9032 105.032 14.1426 105.125 14.4261C105.218 14.7095 105.159 15.0174 105.125 15.3155C105.056 15.8921 105.081 16.5128 105.403 16.9917C105.731 17.4706 106.435 17.7296 106.913 17.4071" stroke="#A3A3A3" stroke-miterlimit="10" stroke-linecap="round" stroke-linejoin="round"/>
<path d="M102.618 10.4385C101.719 12.5887 101.709 15.0957 102.594 17.2508" stroke="#A3A3A3" stroke-miterlimit="10" stroke-linecap="round" stroke-linejoin="round"/>
<path d="M100.805 10.2734C99.6417 12.7804 99.7199 15.8249 101.005 18.2684" stroke="#AEAEAE" stroke-miterlimit="10" stroke-linecap="round" stroke-linejoin="round"/>
<path d="M42.4699 15.1826C42.1816 15.5442 41.9373 15.9351 41.7271 16.3359C41.7662 16.3456 41.8102 16.3505 41.8493 16.3603C42.4699 16.5607 42.8169 17.2301 42.6214 17.8508C42.4308 18.4714 41.7711 18.8086 41.1505 18.6082C41.1065 18.5936 41.0674 18.574 41.0283 18.5545C40.9648 19.0139 40.9403 19.4781 40.9648 19.9375C41.0039 19.9228 41.0478 19.9082 41.0918 19.8984C41.7271 19.7616 42.3526 20.1721 42.4992 20.8122C42.641 21.4524 42.2451 22.0779 41.6098 22.2099C41.561 22.2197 41.5121 22.2197 41.4632 22.2245C41.6343 22.6546 41.8444 23.0749 42.1034 23.4756C42.1327 23.4365 42.1621 23.4023 42.2011 23.3681C42.6801 22.9331 43.4229 22.9722 43.8627 23.456C44.3025 23.9398 44.2732 24.6875 43.7943 25.1225C43.7503 25.1615 43.7063 25.1909 43.6623 25.2202C44.0337 25.5232 44.4295 25.7822 44.8449 26.0021C44.8547 25.9483 44.8596 25.8946 44.8791 25.8359C45.0697 25.2153 45.7295 24.8781 46.3501 25.0785C46.9707 25.2788 47.3177 25.9483 47.1222 26.569C47.1027 26.6276 47.0782 26.6814 47.0489 26.7351C47.5181 26.8084 47.9872 26.8377 48.4612 26.8231C48.4417 26.7693 48.4172 26.7107 48.4026 26.652C48.2609 26.0119 48.6567 25.3863 49.292 25.2544C49.9273 25.1176 50.5528 25.5281 50.6994 26.1682C50.7141 26.2318 50.719 26.2953 50.7238 26.3588C51.1588 26.1927 51.5839 25.9777 51.9847 25.7187C51.9358 25.6796 51.8869 25.6405 51.8429 25.5916C51.4031 25.1078 51.4324 24.3601 51.9114 23.9252C52.3903 23.4902 53.1331 23.5293 53.5729 24.0131C53.6169 24.062 53.656 24.1158 53.6902 24.1695C53.9883 23.7932 54.2424 23.3925 54.4525 22.9771C54.3939 22.9673 54.3304 22.9576 54.2717 22.938C53.6511 22.7377 53.3041 22.0682 53.4996 21.4475C53.6902 20.8269 54.3499 20.4897 54.9705 20.6901C55.0292 20.7096 55.0878 20.7389 55.1416 20.7682C55.2051 20.2991 55.2247 19.8251 55.2002 19.3462C55.1465 19.3657 55.0927 19.3853 55.0341 19.3999C54.3988 19.5368 53.7733 19.1263 53.6266 18.4861C53.4849 17.8459 53.8808 17.2204 54.5161 17.0884C54.5747 17.0787 54.6333 17.0738 54.6871 17.0689C54.5112 16.634 54.2962 16.2137 54.0323 15.813C53.9981 15.8521 53.9687 15.896 53.9248 15.9302C53.4458 16.3652 52.703 16.3261 52.2632 15.8423C51.8234 15.3585 51.8527 14.6108 52.3316 14.1759C52.3707 14.1416 52.4147 14.1123 52.4538 14.083C52.0824 13.7849 51.6866 13.5308 51.2761 13.3207C51.2663 13.3695 51.2614 13.4135 51.2467 13.4624C51.0562 14.083 50.3964 14.4202 49.7758 14.2198C49.1552 14.0195 48.8082 13.35 49.0037 12.7293C49.0183 12.6854 49.0379 12.6414 49.0574 12.6023C48.5981 12.5339 48.1387 12.5094 47.6793 12.529C47.694 12.5681 47.7086 12.6072 47.7184 12.6511C47.8601 13.2913 47.4643 13.9168 46.829 14.0488C46.1937 14.1856 45.5682 13.7751 45.4216 13.135C45.4118 13.091 45.4118 13.047 45.4069 13.003C44.9867 13.1692 44.5762 13.3744 44.1901 13.6285C44.2194 13.6578 44.2536 13.6774 44.2781 13.7116C44.7179 14.1954 44.6886 14.9431 44.2096 15.378C43.7307 15.813 42.9879 15.7739 42.5481 15.2901C42.5188 15.2559 42.4944 15.2216 42.4699 15.1826ZM45.8663 17.2497C47.1858 16.0426 49.2431 16.155 50.46 17.4989C51.6768 18.8428 51.5937 20.91 50.2743 22.117C48.9548 23.3241 46.8974 23.2117 45.6806 21.8678C44.4687 20.5239 44.5468 18.4568 45.8663 17.2497Z" fill="#C0C0C0"/>
<path d="M45.2261 16.5469C46.9267 14.9929 49.5852 15.1346 51.1539 16.8695C52.7274 18.6043 52.6199 21.2726 50.9193 22.8266C49.2187 24.3806 46.5602 24.2389 44.9915 22.504C43.4179 20.7692 43.5254 18.101 45.2261 16.5469Z" stroke="#292929" stroke-width="0.5" stroke-miterlimit="10" stroke-linecap="round" stroke-linejoin="round"/>
<path d="M24.75 21.8111C24.2906 22.3584 23.8899 22.9399 23.5527 23.5508C23.6163 23.5655 23.6749 23.5752 23.7384 23.5997C24.6816 23.9417 25.1849 24.9875 24.8575 25.9307C24.5301 26.8739 23.499 27.3626 22.5509 27.0205C22.4825 26.996 22.4238 26.9618 22.3652 26.9325C22.243 27.6362 22.1844 28.3497 22.199 29.0632C22.2626 29.0436 22.3261 29.0192 22.3945 29.0094C23.3768 28.8335 24.3248 29.4932 24.5154 30.4853C24.706 31.4773 24.061 32.4205 23.0787 32.5964C23.0005 32.6111 22.9272 32.6111 22.849 32.6159C23.0885 33.2903 23.3963 33.9452 23.7726 34.5756C23.8215 34.5218 23.8704 34.4632 23.929 34.4143C24.6865 33.7692 25.83 33.867 26.4848 34.6391C27.1397 35.4112 27.0566 36.5597 26.2991 37.2047C26.2307 37.2634 26.1623 37.3073 26.089 37.3513C26.6461 37.8351 27.2472 38.2554 27.8678 38.6121C27.8825 38.5291 27.8971 38.446 27.9265 38.3629C28.2539 37.4197 29.285 36.9311 30.2331 37.2731C31.1811 37.6152 31.6796 38.661 31.3522 39.6042C31.3228 39.6921 31.2789 39.7752 31.2349 39.8583C31.9533 40 32.6814 40.0684 33.4047 40.0635C33.3753 39.9756 33.3411 39.8876 33.3265 39.7948C33.1408 38.8027 33.781 37.8596 34.7632 37.6836C35.7455 37.5077 36.6935 38.1674 36.8841 39.1595C36.9037 39.2572 36.9085 39.3598 36.9085 39.4576C37.5878 39.2181 38.2475 38.9151 38.8828 38.534C38.8095 38.4704 38.7362 38.4069 38.6727 38.3336C38.0179 37.5615 38.1009 36.413 38.8584 35.768C39.6159 35.1229 40.7594 35.2206 41.4142 35.9928C41.4827 36.071 41.5364 36.154 41.5853 36.242C42.0642 35.68 42.4747 35.074 42.8217 34.4387C42.7288 34.4192 42.636 34.3997 42.5431 34.3703C41.5999 34.0283 41.0966 32.9825 41.4289 32.0393C41.7563 31.0961 42.7875 30.6074 43.7355 30.9495C43.8284 30.9837 43.9114 31.0277 43.9945 31.0766C44.1167 30.3582 44.1704 29.6252 44.1509 28.8921C44.0678 28.9215 43.9847 28.9508 43.8919 28.9655C42.9096 29.1414 41.9616 28.4817 41.771 27.4896C41.5804 26.4976 42.2255 25.5544 43.2077 25.3785C43.2957 25.3638 43.3837 25.3589 43.4765 25.3589C43.2273 24.6797 42.9145 24.0199 42.5284 23.3895C42.4747 23.4482 42.4258 23.5117 42.3623 23.5655C41.6048 24.2105 40.4613 24.1128 39.8065 23.3407C39.1516 22.5685 39.2347 21.4201 39.9922 20.775C40.0557 20.7213 40.1192 20.6822 40.1876 20.6382C39.6305 20.1642 39.0343 19.7488 38.4137 19.4018C38.399 19.4751 38.3893 19.5436 38.3648 19.6169C38.0374 20.56 37.0063 21.0487 36.0582 20.7066C35.1151 20.3646 34.6117 19.3188 34.9391 18.3756C34.9636 18.3072 34.9978 18.2436 35.032 18.1801C34.3332 18.0482 33.6197 17.9895 32.9111 17.9944C32.9306 18.058 32.9551 18.1166 32.9697 18.185C33.1603 19.177 32.5152 20.1202 31.533 20.2961C30.5507 20.4721 29.6027 19.8123 29.4121 18.8203C29.3974 18.7519 29.3974 18.6884 29.3925 18.6199C28.7377 18.8545 28.0975 19.1526 27.4866 19.5191C27.5306 19.5631 27.5795 19.6022 27.6186 19.6462C28.2734 20.4183 28.1904 21.5667 27.4329 22.2118C26.6754 22.8569 25.5319 22.7591 24.8771 21.987C24.8184 21.9235 24.7842 21.8648 24.75 21.8111ZM28.3321 23.3358C31.4157 20.6969 36.0778 21.1074 38.7411 24.2447C41.4094 27.3821 41.0673 32.0637 37.9837 34.7026C34.9 37.3416 30.238 36.9311 27.5746 33.7937C24.9113 30.6563 25.2485 25.9747 28.3321 23.3358Z" fill="#C0C0C0"/>
<path d="M37.0259 36.5541C41.1309 34.4723 42.7387 29.3948 40.6129 25.2361C38.4822 21.0773 33.4145 19.3865 29.3046 21.4683C25.1997 23.5501 23.587 28.6276 25.7177 32.7863C27.8483 36.945 32.916 38.6359 37.0259 36.5541ZM28.1611 31.5499C26.7292 28.7546 27.8141 25.3436 30.5703 23.9459C33.3314 22.5483 36.7376 23.6821 38.1645 26.4773C39.5964 29.2726 38.5115 32.6837 35.7553 34.0813C32.9991 35.479 29.593 34.3452 28.1611 31.5499Z" fill="#C0C0C0"/>
<path d="M27.2766 31.9944C25.5955 28.7055 26.8661 24.6934 30.1159 23.0465C33.3656 21.3996 37.3729 22.7386 39.0588 26.0275C40.7399 29.3164 39.4693 33.3285 36.2245 34.9754C32.9698 36.6174 28.9577 35.2832 27.2766 31.9944Z" stroke="#292929" stroke-width="0.5" stroke-miterlimit="10" stroke-linecap="round" stroke-linejoin="round"/>
<path d="M157.385 43.3324C157.351 41.06 159.315 39.3056 161.465 39.4082C162.213 39.4424 162.902 39.6917 163.474 40.0875C164.368 39.0613 165.707 38.4406 167.173 38.509C169.182 38.6068 171.132 39.9653 171.293 41.8321C173.262 42.3941 174.748 44.2218 174.645 46.3525C174.582 47.6719 173.961 48.8301 173.018 49.612C173.258 50.2864 173.233 51.083 172.798 51.8746C172.564 52.2998 172.197 52.6419 171.762 52.8471C170.961 53.2234 170.203 53.2039 169.563 52.9546L169.514 56.6393C169.509 56.8593 169.226 56.9472 169.099 56.7664L167.173 53.9858C165.38 54.7188 163.767 53.6193 163.65 51.987C163.171 52.2265 162.633 52.3487 162.062 52.3242C160.415 52.246 159.12 50.951 158.993 49.3481C158.094 49.8857 156.921 49.9981 155.753 49.4117C155.108 49.0891 154.599 48.5271 154.345 47.8527C153.441 45.468 155.191 43.2982 157.385 43.3324Z" fill="#ABC8F4"/>
<path d="M170.648 47.8359C171.708 47.8848 172.598 48.5543 172.974 49.4779" stroke="black" stroke-width="0.5" stroke-miterlimit="10" stroke-linecap="round" stroke-linejoin="round"/>
<path d="M159.017 49.0778C159.1 47.2941 160.62 45.9111 162.404 45.9991" stroke="black" stroke-width="0.5" stroke-miterlimit="10" stroke-linecap="round" stroke-linejoin="round"/>
<path d="M157.111 43.3362C157.795 43.2923 158.431 43.4535 158.968 43.7663" stroke="black" stroke-width="0.5" stroke-miterlimit="10" stroke-linecap="round" stroke-linejoin="round"/>
<path d="M160.786 40.8555C162.223 40.9239 163.327 42.1407 163.259 43.5775" stroke="black" stroke-width="0.5" stroke-miterlimit="10" stroke-linecap="round" stroke-linejoin="round"/>
<path d="M163.063 50.742C161.798 50.8641 160.674 49.9356 160.556 48.6699" stroke="black" stroke-width="0.5" stroke-miterlimit="10" stroke-linecap="round" stroke-linejoin="round"/>
<path d="M155.821 47.3684C155.445 46.2884 156.017 45.1058 157.102 44.7344" stroke="black" stroke-width="0.5" stroke-miterlimit="10" stroke-linecap="round" stroke-linejoin="round"/>
<path d="M171.64 50.4033C171.371 51.2292 170.487 51.6837 169.661 51.4149" stroke="black" stroke-width="0.5" stroke-miterlimit="10" stroke-linecap="round" stroke-linejoin="round"/>
<path d="M167.857 42.4692C168.81 41.8144 170.013 41.5749 171.239 41.8241" stroke="black" stroke-width="0.5" stroke-miterlimit="10" stroke-linecap="round" stroke-linejoin="round"/>
<path d="M171.972 43.8164C172.612 44.2904 173.033 45.0479 173.047 45.9031" stroke="black" stroke-width="0.5" stroke-miterlimit="10" stroke-linecap="round" stroke-linejoin="round"/>
<path d="M165.028 44.8082C165.83 44.647 166.709 45.0281 167.134 45.7221C167.564 46.416 167.515 47.3738 167.017 48.0189" stroke="black" stroke-width="0.5" stroke-miterlimit="10" stroke-linecap="round" stroke-linejoin="round"/>
<path d="M164.759 48.7432C164.481 48.9973 164.339 49.3931 164.393 49.7645C164.447 50.1359 164.696 50.478 165.033 50.6393" stroke="black" stroke-width="0.5" stroke-miterlimit="10" stroke-linecap="round" stroke-linejoin="round"/>
<path d="M99.5144 87.1641L101.894 167.084" stroke="#0464F4" stroke-width="0.5" stroke-miterlimit="10" stroke-linecap="round" stroke-linejoin="round"/>
<path d="M121.3 148.968C120.934 149.095 120.567 149.222 120.206 149.345C113.696 151.534 107.099 153.743 100.267 154.192C94.6423 154.564 89.0175 153.728 83.4367 152.897C77.0495 151.944 70.8383 151.817 69.3136 144.497C68.4682 140.446 68.1798 136.272 68.4584 132.138C68.6099 129.861 68.9666 127.505 70.2177 125.624C70.9605 124.505 71.977 123.62 72.881 122.638C80.3873 114.53 77.0886 102.685 83.4073 94.7631C89.4426 87.1982 99.8566 85.3803 108.267 89.6123C113.613 92.3001 118.436 97.0941 119.316 103.33C120.318 110.426 120.015 117.375 124.521 123.473C125.63 124.974 126.969 126.313 127.814 127.989C130.409 133.13 130.336 143.021 125.552 146.818C124.296 147.82 122.81 148.436 121.3 148.968Z" stroke="#0464F4" stroke-width="0.5" stroke-miterlimit="10" stroke-linecap="round" stroke-linejoin="round"/>
<path d="M117.962 104.205C118.446 105.612 118.666 107.113 118.607 108.598" stroke="#0464F4" stroke-width="0.5" stroke-miterlimit="10" stroke-linecap="round" stroke-linejoin="round"/>
<path d="M118.984 110.964C118.769 114.883 120.054 118.861 122.517 121.915" stroke="#0464F4" stroke-width="0.5" stroke-miterlimit="10" stroke-linecap="round" stroke-linejoin="round"/>
<path d="M82.1612 114.336C82.083 115.841 81.741 117.332 81.1545 118.724" stroke="#0464F4" stroke-width="0.5" stroke-miterlimit="10" stroke-linecap="round" stroke-linejoin="round"/>
<path d="M83.1483 118.891C83.0408 119.677 82.9333 120.469 82.8258 121.256" stroke="#0464F4" stroke-width="0.5" stroke-miterlimit="10" stroke-linecap="round" stroke-linejoin="round"/>
<path d="M53.3091 110.139C56.1435 110.207 58.9975 109.415 61.3871 107.891" stroke="black" stroke-width="0.5" stroke-miterlimit="10" stroke-linecap="round" stroke-linejoin="round"/>
<path d="M129.94 98.125C130.224 98.5159 130.512 98.9069 130.796 99.2978" stroke="black" stroke-width="0.5" stroke-miterlimit="10" stroke-linecap="round" stroke-linejoin="round"/>
<path d="M130.751 96.9688C131.201 97.5894 131.651 98.2051 132.1 98.8258" stroke="black" stroke-width="0.5" stroke-miterlimit="10" stroke-linecap="round" stroke-linejoin="round"/>
<path d="M133.635 86.1631C134.68 86.8375 135.56 87.7709 136.176 88.8509" stroke="black" stroke-width="0.5" stroke-miterlimit="10" stroke-linecap="round" stroke-linejoin="round"/>
<path d="M88.9148 62.1934C88.9783 62.7016 88.9246 63.2294 88.7535 63.7132" stroke="black" stroke-width="0.5" stroke-miterlimit="10" stroke-linecap="round" stroke-linejoin="round"/>
<path d="M91.285 62.3633C90.9185 62.9155 90.679 63.5557 90.6008 64.2154" stroke="black" stroke-width="0.5" stroke-miterlimit="10" stroke-linecap="round" stroke-linejoin="round"/>
<path d="M107.314 62.8682C107.255 63.4888 107.314 64.1241 107.485 64.7252" stroke="black" stroke-width="0.5" stroke-miterlimit="10" stroke-linecap="round" stroke-linejoin="round"/>
<path d="M70.0174 75.6914C68.6002 77.0353 67.3003 78.5063 66.1372 80.0798" stroke="black" stroke-width="0.5" stroke-miterlimit="10" stroke-linecap="round" stroke-linejoin="round"/>
<path d="M68.9911 78.5508C68.3167 79.3376 67.6423 80.1292 66.9679 80.916" stroke="black" stroke-width="0.5" stroke-miterlimit="10" stroke-linecap="round" stroke-linejoin="round"/>
<path d="M82.9822 10.9539C82.9578 6.91245 79.4539 3.71155 75.3294 4.17091C71.9672 4.5472 69.4358 7.24476 69.2599 10.6265C69.1426 12.9184 70.1444 14.9709 71.7669 16.305C72.8029 17.1553 73.4968 18.3428 73.6434 19.6721L73.9366 22.3403C74.0002 22.9267 74.4986 23.3714 75.0899 23.3666L77.2841 23.3519C77.8755 23.347 78.369 22.8974 78.4277 22.311L78.6916 19.6428C78.8235 18.3184 79.493 17.1211 80.5144 16.2708C82.0293 14.9953 82.992 13.0846 82.9822 10.9539Z" fill="#FFF510"/>
<path d="M76.1895 24.2659C74.699 24.2757 73.4871 23.0735 73.4773 21.583L73.4724 20.4151L78.8626 20.3857L78.8675 21.5537C78.8773 23.0442 77.68 24.2561 76.1895 24.2659Z" fill="black"/>
<path d="M75.1291 20.9818C74.6453 18.7289 74.1762 16.4712 73.6142 14.2379C73.3161 13.0504 71.679 9.55139 74.3032 9.957C74.9141 10.0498 75.4321 10.563 75.5347 11.1689C75.5885 11.4817 75.5298 11.8287 75.3148 12.0632C75.0998 12.2978 74.7186 12.3809 74.4547 12.205C74.2837 12.0877 74.1859 11.8824 74.1566 11.6772C74.0735 11.1298 74.4058 10.5874 74.8506 10.2649C75.4223 9.84948 76.1944 9.38035 76.9226 9.67356C77.3331 9.83482 77.6019 10.2355 77.768 10.6412C77.8804 10.9197 77.9537 11.2276 77.8706 11.5159C77.7876 11.8042 77.509 12.0535 77.2109 12.0095C76.9763 11.9753 76.7955 11.77 76.732 11.5403C76.6685 11.3107 76.7076 11.0712 76.7809 10.8464C76.9519 10.3284 77.3331 9.85437 77.8511 9.68333C78.3691 9.51229 79.0191 9.71754 79.2634 10.2062C79.4247 10.5336 79.3953 10.9148 79.3465 11.2765C79.1266 12.9722 78.5792 14.5409 78.2714 16.2122C77.9879 17.7516 77.7045 19.2958 77.421 20.8352" stroke="#1C1C1B" stroke-width="0.5" stroke-miterlimit="10" stroke-linecap="round" stroke-linejoin="round"/>
<path d="M65.5508 9.22363C66.792 9.39467 66.3913 9.34091 67.6521 9.51684" stroke="#1C1C1B" stroke-width="0.5" stroke-miterlimit="10" stroke-linecap="round" stroke-linejoin="round"/>
<path d="M67.3981 4.11328L69.0058 5.57446" stroke="#1C1C1B" stroke-width="0.5" stroke-miterlimit="10" stroke-linecap="round" stroke-linejoin="round"/>
<path d="M74.0393 0.803711C74.1419 1.34127 74.2494 2.23068 74.357 2.76823" stroke="#1C1C1B" stroke-width="0.5" stroke-miterlimit="10" stroke-linecap="round" stroke-linejoin="round"/>
<path d="M78.5451 0.613281C78.3936 1.77147 78.2909 2.56315 78.2274 3.03229" stroke="#1C1C1B" stroke-width="0.5" stroke-miterlimit="10" stroke-linecap="round" stroke-linejoin="round"/>
<path d="M85.0347 5.25586C83.9694 6.00355 84.0427 5.9498 82.948 6.71704" stroke="#1C1C1B" stroke-width="0.5" stroke-miterlimit="10" stroke-linecap="round" stroke-linejoin="round"/>
<path d="M84.5754 9.98535C85.8607 10.0684 85.543 10.0489 86.8332 10.132" stroke="#1C1C1B" stroke-width="0.5" stroke-miterlimit="10" stroke-linecap="round" stroke-linejoin="round"/>
<path d="M74.6697 5.70996C73.2916 6.05204 72.0698 6.97566 71.3612 8.20715C70.6526 9.43865 70.4718 10.9585 70.8726 12.3219" stroke="#292929" stroke-width="0.5" stroke-miterlimit="10" stroke-linecap="round" stroke-linejoin="round"/>
</svg>
