<svg width="163" height="70" viewBox="0 0 163 70" fill="none" xmlns="http://www.w3.org/2000/svg">
<g clip-path="url(#clip0_979_8978)">
<path d="M65.5543 46.9444V29.2409H69.3006C70.3439 29.1916 71.3836 29.3976 72.3341 29.8418C73.0623 30.2237 73.63 30.8649 73.931 31.6454C74.2763 32.6027 74.4388 33.6193 74.4097 34.6397V41.1524C74.4374 42.2299 74.2752 43.3036 73.931 44.3219C73.6467 45.1376 73.098 45.8281 72.3768 46.2777C71.4917 46.7639 70.4947 46.9943 69.4921 46.9444H65.5543ZM67.9598 45.174H69.322C69.9878 45.24 70.6542 45.0534 71.1951 44.6494C71.5919 44.2397 71.8302 43.696 71.8659 43.1194C71.9506 42.3138 71.9897 41.5038 71.9829 40.6935V34.9453C71.9968 34.1983 71.9398 33.4516 71.8128 32.7159C71.7765 32.4676 71.6917 32.2292 71.5637 32.0152C71.4357 31.8012 71.267 31.6158 71.0677 31.4701C70.5127 31.1664 69.8853 31.0301 69.258 31.077H67.9598L67.9598 45.174Z" fill="#333333"/>
<path d="M77.0707 32.5487V30.1196H78.8424V32.5487H77.0707ZM77.0707 46.9511V34.4144H78.8424V46.9511L77.0707 46.9511Z" fill="#333333"/>
<path d="M84.1895 46.948C83.7277 46.9675 83.2668 46.8951 82.8362 46.7352C82.4056 46.5754 82.0149 46.3317 81.6891 46.0198C81.0369 45.3494 80.656 44.4806 80.6141 43.5681L82.5661 43.0045C82.6268 43.613 82.8292 44.201 83.1586 44.7258C83.2943 44.9138 83.4785 45.0653 83.6937 45.1658C83.9088 45.2663 84.1475 45.3124 84.3868 45.2996C84.5642 45.3115 84.7422 45.2869 84.9087 45.2275C85.0753 45.1681 85.2264 45.0753 85.3518 44.9553C85.5819 44.6972 85.6997 44.3651 85.681 44.0271C85.6862 43.6997 85.6031 43.3764 85.4397 43.0882C85.2331 42.7598 84.9655 42.4698 84.65 42.2324L82.4788 40.4591C82.0501 40.1086 81.677 39.7009 81.3711 39.2488C81.0834 38.7344 80.9292 38.1619 80.9216 37.5792C80.9139 36.9965 81.053 36.4206 81.3272 35.8995C81.5935 35.4649 81.9907 35.1161 82.4675 34.8984C83.0059 34.6588 83.5953 34.541 84.1895 34.5541C84.6243 34.5283 85.0596 34.5987 85.461 34.7598C85.8625 34.9208 86.2192 35.1681 86.5034 35.4823C87.0453 36.1214 87.3636 36.9057 87.4137 37.7254L85.8343 38.289C85.7864 37.9161 85.6982 37.549 85.5711 37.1934C85.4772 36.9153 85.3113 36.6642 85.0886 36.4631C84.8622 36.282 84.5723 36.1889 84.2769 36.2025C84.1063 36.1955 83.9361 36.2246 83.7788 36.2877C83.6215 36.3509 83.4809 36.4465 83.3671 36.5676C83.1425 36.8047 83.0209 37.114 83.0266 37.4331C83.0273 37.6457 83.0759 37.8556 83.1693 38.0487C83.2871 38.2784 83.4555 38.4812 83.663 38.6434L85.9003 40.6049C86.2091 40.871 86.4985 41.1568 86.7667 41.4602C87.0424 41.7748 87.2679 42.1265 87.4357 42.5037C87.6193 42.9341 87.7088 43.3955 87.699 43.8598C87.7211 44.4578 87.5692 45.0499 87.2599 45.5709C86.9713 46.0267 86.5425 46.3872 86.0316 46.6037C85.4509 46.8437 84.8225 46.9611 84.1895 46.948Z" fill="#333333"/>
<path d="M89.4728 46.9511V29.2337H91.7161V35.621C92.1246 35.2104 92.5829 34.8574 93.0794 34.571C93.5929 34.2765 94.1708 34.1258 94.7568 34.1337C94.956 34.1203 95.1558 34.1482 95.3447 34.2157C95.5335 34.2832 95.7077 34.3891 95.8571 34.5272C96.1206 34.798 96.309 35.1381 96.4025 35.5114C96.5072 35.9031 96.5601 36.3078 96.5598 36.7144V46.9511H94.316V37.3923C94.3338 37.0318 94.2692 36.6721 94.1274 36.3428C94.0454 36.2102 93.9288 36.1048 93.7914 36.0389C93.654 35.973 93.5013 35.9493 93.3515 35.9707C93.0605 35.9779 92.7759 36.0606 92.5232 36.2113C92.233 36.3747 91.9621 36.5729 91.716 36.8021V46.9511L89.4728 46.9511Z" fill="#333333"/>
<path d="M103 46.9495C102.286 46.9692 101.58 46.795 100.958 46.4457C100.399 46.1208 99.9482 45.6397 99.6621 45.0623C99.3572 44.4341 99.2054 43.7435 99.2191 43.0462C99.1937 42.0414 99.452 41.0497 99.9647 40.183C100.457 39.3811 101.064 38.655 101.768 38.028C101.509 37.5132 101.232 36.9949 100.937 36.4732C100.641 35.9508 100.388 35.4056 100.181 34.8429C99.9712 34.2763 99.8652 33.6772 99.8675 33.0737C99.8506 32.3749 100.006 31.6827 100.321 31.0576C100.614 30.496 101.064 30.0305 101.617 29.7172C102.225 29.3842 102.911 29.2178 103.604 29.2349C104.255 29.2235 104.901 29.3552 105.495 29.6207C106.03 29.8625 106.489 30.2443 106.823 30.7252C107.164 31.2363 107.338 31.8393 107.32 32.452C107.32 33.2089 107.139 33.9549 106.791 34.6285C106.44 35.3193 106.008 35.9671 105.506 36.5586C105.001 37.1522 104.512 37.6776 104.037 38.1349L106.672 42.2526C106.84 41.9276 106.974 41.5863 107.072 41.234C107.18 40.8554 107.273 40.4516 107.353 40.0226C107.432 39.5933 107.493 39.1786 107.536 38.7786H109.826C109.821 39.3731 109.737 39.9644 109.577 40.5374C109.417 41.1374 109.204 41.7222 108.941 42.2851C108.716 42.7754 108.448 43.2455 108.141 43.69C108.348 43.9351 108.596 44.1421 108.876 44.3012C109.169 44.4772 109.505 44.5699 109.848 44.569V46.928H109.545C109.153 46.9204 108.768 46.8213 108.422 46.6386C108.094 46.4626 107.793 46.2424 107.526 45.9844C107.259 45.727 107.003 45.484 106.758 45.2552C106.344 45.7624 105.824 46.1756 105.235 46.4672C104.54 46.804 103.773 46.9695 103 46.9495ZM103 45.0408C103.491 45.0571 103.975 44.9181 104.382 44.644C104.744 44.3909 105.071 44.0916 105.354 43.7539L102.676 39.6577C102.316 40.1279 102.035 40.653 101.844 41.2125C101.636 41.8018 101.53 42.4218 101.531 43.0462C101.53 43.3688 101.574 43.6899 101.66 44.0008C101.735 44.2893 101.893 44.55 102.114 44.7515C102.362 44.9555 102.678 45.0588 103 45.0408ZM103.237 36.891C103.564 36.4985 103.849 36.0748 104.091 35.6261C104.361 35.1304 104.582 34.6096 104.75 34.0713C104.918 33.5476 105.006 33.0017 105.009 32.452C105.019 32.2711 104.989 32.0902 104.922 31.9217C104.855 31.7533 104.752 31.6012 104.62 31.4759C104.34 31.2325 103.976 31.1057 103.604 31.122C103.382 31.1049 103.159 31.1526 102.963 31.2594C102.768 31.3661 102.608 31.5271 102.503 31.7228C102.283 32.1391 102.171 32.6036 102.179 33.0737C102.18 33.7417 102.294 34.4049 102.514 35.0363C102.737 35.6867 102.978 36.3049 103.237 36.891H103.237Z" fill="#333333"/>
<path d="M112.354 46.9511V36.2017H110.734V34.4999H112.354V33.8538C112.343 33.1849 112.41 32.5167 112.554 31.8608C112.656 31.3559 112.952 30.9012 113.388 30.5792C113.951 30.2412 114.619 30.0823 115.291 30.1269C115.604 30.1269 115.882 30.1376 116.124 30.159C116.396 30.1851 116.667 30.2247 116.935 30.2775V31.9577C116.794 31.9295 116.637 31.904 116.465 31.8824C116.309 31.8621 116.152 31.8513 115.995 31.8503C115.809 31.8246 115.62 31.8535 115.453 31.9327C115.286 32.012 115.151 32.1376 115.067 32.2916C114.92 32.6677 114.852 33.0663 114.868 33.4658V34.4999H116.935V36.2017H114.868V46.9511L112.354 46.9511Z" fill="#333333"/>
<path d="M120.933 46.9455C120.093 46.9858 119.259 46.7966 118.544 46.4035C117.947 46.025 117.51 45.4817 117.303 44.8595C117.043 44.0953 116.919 43.3 116.936 42.5023V38.9977C116.919 38.2 117.043 37.4047 117.303 36.6405C117.51 36.0183 117.947 35.475 118.544 35.0965C119.259 34.7034 120.093 34.5142 120.933 34.5545C121.77 34.5132 122.601 34.7026 123.31 35.0965C123.901 35.478 124.333 36.0206 124.54 36.6405C124.799 37.4047 124.923 38.2 124.906 38.9977V42.5023C124.923 43.3 124.8 44.0953 124.54 44.8595C124.333 45.4794 123.901 46.022 123.31 46.4035C122.601 46.7974 121.77 46.9868 120.933 46.9455ZM120.933 45.2975C121.126 45.3157 121.322 45.2909 121.502 45.2253C121.681 45.1598 121.84 45.0556 121.962 44.9222C122.176 44.625 122.298 44.2834 122.316 43.9315C122.356 43.5214 122.376 43.0936 122.376 42.6481V38.8723C122.376 38.4134 122.356 37.9823 122.316 37.5792C122.296 37.2275 122.174 36.8863 121.962 36.5879C121.842 36.4519 121.684 36.3452 121.504 36.2778C121.324 36.2103 121.128 36.1844 120.933 36.2025C120.737 36.1852 120.539 36.2114 120.357 36.2787C120.176 36.3461 120.016 36.4523 119.893 36.5879C119.673 36.8837 119.546 37.2259 119.526 37.5792C119.487 37.9829 119.467 38.4139 119.466 38.8723V42.6481C119.466 43.0936 119.486 43.5214 119.526 43.9315C119.543 44.2851 119.67 44.6277 119.893 44.9223C120.018 45.0552 120.178 45.1589 120.36 45.2244C120.541 45.2898 120.738 45.3149 120.933 45.2975V45.2975Z" fill="#333333"/>
<path d="M126.679 46.9511V34.6977H128.936V36.4362C129.254 35.8291 129.718 35.3117 130.286 34.9308C130.695 34.6877 131.16 34.556 131.636 34.5489H131.794C131.861 34.551 131.928 34.5581 131.995 34.5702V37.072C131.806 36.9955 131.612 36.9352 131.414 36.8916C131.196 36.8424 130.973 36.8176 130.75 36.8175C130.414 36.8136 130.083 36.8977 129.79 37.0616C129.431 37.2992 129.138 37.6234 128.936 38.0047V46.9511H126.679Z" fill="#333333"/>
<path d="M133.766 46.9292V29.2337H136.041V39.7856L139.358 34.3241H141.739L138.848 39.2613L141.654 46.9511H139.379L137.083 40.4847L136.041 42.1016V46.9292L133.766 46.9292Z" fill="#333333"/>
<path d="M40.4168 46.8691C40.4065 46.9056 40.4073 46.9459 40.419 46.9816C40.4307 47.0173 40.4523 47.0458 40.4795 47.0612C40.9881 47.3397 41.5204 47.5369 42.0649 47.6486C42.358 47.7146 42.6544 47.7532 42.9517 47.7638C42.8095 49.9813 42.6673 52.2921 42.5251 54.8664C42.4038 57.0345 42.2866 60.9097 42.1653 63.5498C42.1433 64.0683 42.005 64.5667 41.7679 64.9825C41.6789 65.1428 41.5651 65.2765 41.4338 65.3749C41.3026 65.4733 41.157 65.5341 41.0066 65.5533C40.3582 65.5917 39.8478 64.5543 39.8645 63.3797C39.8938 61.3378 39.9273 57.9512 39.9566 56.2057C40.0904 48.8122 40.2201 43.6582 40.3498 37.2142C40.6453 37.192 40.9418 37.2178 41.2324 37.2911C41.4082 37.3366 41.5794 37.4084 41.7427 37.5051C41.9041 37.6079 42.0557 37.735 42.1945 37.8839C42.4656 38.1882 42.6717 38.5797 42.7927 39.0201C42.9066 39.4781 42.9451 39.9627 42.9056 40.4417L42.9015 40.4856C42.9002 40.5453 42.9073 40.6049 42.9224 40.6612C42.9352 40.7077 42.955 40.7503 42.9806 40.7866C43.0061 40.8229 43.037 40.8522 43.0712 40.8726C43.1055 40.8931 43.1426 40.9043 43.1802 40.9057C43.2179 40.9071 43.2554 40.8987 43.2905 40.8808C43.3281 40.8643 43.3658 40.8479 43.4076 40.8259C43.2696 42.9117 43.1357 44.9206 43.0018 47.0009C42.709 47.0174 42.412 47.0064 42.1151 46.9899C41.5964 46.946 41.0651 46.8582 40.5339 46.7704H40.5213C40.4982 46.7707 40.4758 46.7803 40.4571 46.798C40.4384 46.8157 40.4243 46.8405 40.4168 46.8691Z" fill="#7E004A"/>
<path d="M30.1018 62.4439C30.1649 62.9752 30.0589 63.5131 29.7992 63.9793C29.7037 64.1578 29.5692 64.3119 29.406 64.4299C29.2427 64.5479 29.055 64.6268 28.8571 64.6604C27.9893 64.7701 27.1215 63.7427 26.9502 62.5132C26.3964 58.5188 25.8425 55.1364 25.2887 52.106C24.832 49.6008 24.3752 47.3381 23.9185 45.1794C24.2698 45.3869 24.6433 45.5535 25.0318 45.6758C25.6383 45.8627 26.2708 45.9485 26.9045 45.9298C27.2219 45.9258 27.5387 45.8988 27.8523 45.849L27.9664 45.8316L28.0692 45.8086H28.0749C28.4575 48.4868 28.8343 51.2402 29.2111 54.3514C29.508 56.7872 29.8049 59.4366 30.1018 62.4439Z" fill="#7E004A"/>
<path d="M56.6676 20.27C55.3765 29.4483 54.0854 35.3097 52.7942 41.1378C52.3862 42.949 51.9838 44.7658 51.5814 46.677C51.4238 46.7478 51.2613 46.8072 51.0951 46.8548H51.0839C51.0493 46.8652 51.0198 46.888 51.0013 46.9188C50.9827 46.9497 50.9763 46.9862 50.9833 47.0215C50.9849 47.0405 50.9906 47.0589 50.9998 47.0756C51.0091 47.0923 51.0217 47.1069 51.037 47.1184C51.0523 47.13 51.0698 47.1382 51.0885 47.1425C51.1072 47.1469 51.1266 47.1473 51.1454 47.1437C51.2628 47.127 51.3801 47.1048 51.4975 47.077C51.0783 49.0771 50.6591 51.1884 50.24 53.5274C49.7761 56.122 49.3121 58.9888 48.8482 62.2889C48.7766 62.8175 48.5513 63.3138 48.1999 63.7168C48.0696 63.8739 47.908 64.0024 47.7252 64.0942C47.5424 64.186 47.3424 64.2391 47.1379 64.2502C46.266 64.2557 45.6679 63.1834 45.7853 61.9945C46.1598 58.2221 46.5399 55.033 46.9199 52.1384C47.177 50.1772 47.4341 48.3549 47.6913 46.577C48.1062 46.3365 48.4892 46.0453 48.8315 45.7103C48.8547 45.6876 48.87 45.658 48.875 45.626C48.88 45.594 48.8745 45.5612 48.8594 45.5325C48.8471 45.5075 48.828 45.4865 48.8043 45.4717C48.7806 45.457 48.7532 45.4492 48.7252 45.4492C48.7038 45.4501 48.6828 45.4558 48.6638 45.4658C48.3732 45.6158 48.0825 45.7603 47.7919 45.8881C47.9539 44.7269 48.1216 43.5768 48.2892 42.4212C48.3035 42.4378 48.3218 42.4505 48.3423 42.4582C48.3628 42.466 48.3849 42.4686 48.4067 42.4657C48.4265 42.4636 48.4458 42.4576 48.4633 42.4481C48.4808 42.4386 48.4963 42.4257 48.5088 42.4102C48.5212 42.3947 48.5305 42.3769 48.536 42.3578C48.5415 42.3387 48.5431 42.3187 48.5408 42.299C48.5307 42.1844 48.5102 42.071 48.4793 41.9601C48.4696 41.9009 48.4527 41.843 48.429 41.7879C48.4227 41.7601 48.4113 41.7338 48.3955 41.7101V41.7045C48.5408 40.6822 48.6917 39.6433 48.837 38.5766C49.3456 34.9097 49.8542 30.8928 50.3629 25.8314C50.37 25.5211 50.3121 25.2126 50.1928 24.9257C50.0735 24.6387 49.8954 24.3797 49.6699 24.1649C49.4443 23.9501 49.1763 23.7843 48.8828 23.6781C48.5893 23.5719 48.2768 23.5276 47.9651 23.548C47.359 23.5433 46.7673 23.7322 46.2772 24.0869C46.045 24.2542 45.8518 24.4694 45.711 24.7177C45.5701 24.9661 45.4849 25.2417 45.4611 25.5258C45.3493 27.3871 45.2375 29.1094 45.1258 30.7206C44.919 33.7596 44.7066 36.4209 44.4998 38.9377C44.4716 38.7544 44.4267 38.574 44.3656 38.3988C44.2136 37.9476 43.9642 37.5348 43.635 37.1893C43.3058 36.8439 42.9047 36.574 42.4597 36.3987C42.174 36.2818 41.8728 36.207 41.5654 36.1764C41.1329 36.1393 40.6978 36.206 40.2966 36.3709C40.3525 34.1652 40.4141 31.804 40.4699 29.1483C40.4978 28.0038 40.5258 26.8092 40.5482 25.5425C40.5705 24.3536 39.4136 23.2979 37.9715 23.3535C37.3728 23.3721 36.797 23.587 36.3339 23.9647C36.1144 24.1415 35.9376 24.3651 35.8167 24.619C35.6958 24.8729 35.6338 25.1505 35.6352 25.4314C35.6632 26.7315 35.6855 27.9593 35.7135 29.1316C35.9482 39.6377 36.1774 45.638 36.4121 55.3608C36.4624 57.372 36.5128 61.0777 36.5574 63.4723C36.5758 63.9903 36.4312 64.5011 36.1438 64.9335C36.0383 65.102 35.8962 65.2448 35.7279 65.3515C35.5596 65.4582 35.3694 65.5261 35.1713 65.5502C34.3161 65.628 33.5448 64.6002 33.4778 63.4112C33.2989 60.4222 33.1201 56.2552 32.9356 53.8552C32.7735 51.6384 32.6058 49.6105 32.4437 47.6604C32.6043 47.6697 32.7654 47.6623 32.9244 47.6381C33.2462 47.5934 33.5558 47.4858 33.8355 47.3215C34.3666 47.0012 34.8222 46.571 35.1713 46.0603C35.1918 46.031 35.2014 45.9956 35.1983 45.96C35.1953 45.9245 35.1798 45.8912 35.1545 45.8658C35.1279 45.8389 35.0919 45.823 35.0539 45.8214C35.014 45.8218 34.9759 45.8378 34.9477 45.8658C34.7523 46.0725 34.5412 46.2638 34.3161 46.4381C34.1013 46.6064 33.8667 46.7481 33.6175 46.8603C33.3782 46.9625 33.1229 47.0226 32.8629 47.0381C32.7017 47.0447 32.5403 47.0317 32.3823 46.9992C32.1643 44.4491 31.9463 42.0101 31.7283 39.421C32.008 39.482 32.2921 39.5211 32.5779 39.5377C33.1149 39.5694 33.6538 39.5339 34.182 39.4321C34.2199 39.4255 34.2538 39.4045 34.2766 39.3736C34.2993 39.3427 34.3092 39.3043 34.3042 39.2663C34.2991 39.2283 34.2795 39.1938 34.2495 39.1698C34.2194 39.1459 34.1813 39.1343 34.1429 39.1377C33.6332 39.1887 33.1194 39.1813 32.6114 39.1155C32.2963 39.0709 31.9857 38.9984 31.6836 38.8988C31.488 36.5542 31.2924 34.0819 31.0967 31.2873C30.9738 29.5427 30.8508 27.676 30.7279 25.6425C30.6608 24.4536 29.4144 23.4424 27.9835 23.5535C27.3915 23.5927 26.8302 23.8296 26.3906 24.2258C26.1858 24.4134 26.0269 24.6451 25.9261 24.9032C25.8254 25.1613 25.7854 25.4389 25.8093 25.7147C26.2844 30.4261 26.7595 34.243 27.2346 37.7154C27.5923 40.36 27.95 42.8101 28.3133 45.3047C28.3021 45.3047 28.2965 45.3102 28.2909 45.3102L28.1792 45.3325L28.0785 45.3491C27.8104 45.3909 27.5395 45.4131 27.2681 45.4158C26.7272 45.4327 26.1872 45.3614 25.6696 45.2047C25.1018 45.0266 24.5728 44.7439 24.1102 44.3713C23.8866 43.3268 23.6575 42.3045 23.4283 41.2767C22.126 35.3986 20.8237 29.5372 19.5158 20.27C19.4255 19.4546 19.5654 18.6303 19.9198 17.8894C20.2742 17.1486 20.8291 16.5204 21.5224 16.0753C25.1162 13.5141 26.9998 13.0307 30.9291 10.5917C31.8233 10.0361 32.332 10.0417 32.2984 9.18608C32.1531 5.60256 31.8913 3.5918 31.8913 0H44.2935C44.2935 0 44.0303 5.60256 43.885 9.18608C43.8514 10.0417 44.3601 10.0361 45.2544 10.5917C49.1836 13.0307 51.0672 13.5141 54.6611 16.0753C55.3562 16.5186 55.9125 17.1465 56.2671 17.8878C56.6217 18.6291 56.7605 19.4544 56.6676 20.27Z" fill="#7E004A"/>
<path d="M38.8911 56.6957C38.7735 56.6957 38.6554 56.6929 38.5377 56.6875C37.5397 56.645 36.566 56.3647 35.6967 55.8697C34.889 55.404 34.2223 54.7264 33.7678 53.9092L33.6453 53.9735C33.3457 54.1307 33.038 54.2716 32.7234 54.3955C31.8414 54.7568 30.8996 54.9473 29.9473 54.957C29.6547 54.9571 29.3624 54.9367 29.0726 54.896C27.8321 54.7194 26.6769 54.1595 25.7665 53.2937H25.7535L25.5844 53.1208C25.5088 53.044 25.4276 52.973 25.3416 52.9082L25.2863 52.8635L24.7584 52.4072L24.0132 52.3123C23.9007 52.2982 23.7873 52.2911 23.6739 52.2911C23.3572 52.2913 23.0428 52.3444 22.7433 52.4481C22.5093 52.5362 22.2616 52.582 22.0117 52.5833C21.8617 52.5837 21.7122 52.5653 21.5667 52.5288C19.8703 52.1117 18.6232 50.2678 18.6048 48.1454C18.5774 47.0794 18.9102 46.0356 19.5488 45.1845C20.1874 44.3334 21.094 43.7253 22.1206 43.4595L22.2518 43.4186L22.2512 43.4093C22.2125 42.6154 22.3152 41.8209 22.5547 41.0634C22.8272 40.1751 23.2977 39.3612 23.9303 38.6836C24.6879 37.8794 25.6735 37.3296 26.7529 37.1091C27.0975 37.0421 27.4475 37.0078 27.7984 37.0066L27.8819 37.0077C27.7652 35.9682 27.8792 34.9157 28.2156 33.9259C28.5521 32.9361 29.1026 32.0337 29.8276 31.2837C29.9918 31.106 30.1544 30.9375 30.3278 30.781C31.6839 29.5384 33.381 28.7362 35.1975 28.4792C35.7556 28.3909 36.3197 28.347 36.8847 28.3479C37.4289 28.3486 37.9725 28.3865 38.5117 28.4613H38.5453C38.6971 28.4536 38.8732 28.4498 39.0483 28.4498C39.3783 28.4498 39.7155 28.464 40.0499 28.4912C41.7966 28.6141 43.4817 29.1912 44.9401 30.1661C45.7093 30.6911 46.3897 31.337 46.9552 32.0792C47.6133 32.8925 48.084 33.8424 48.3337 34.8606C48.5833 35.8787 48.6056 36.9399 48.3991 37.9678C49.1346 38.0253 49.8502 38.2354 50.5011 38.5847C51.152 38.934 51.7239 39.415 52.181 39.9975C52.3872 40.2565 52.5702 40.5332 52.7279 40.8246C53.3907 42.0676 53.6434 43.4904 53.4492 44.8874L53.6113 44.9517C54.6891 45.3619 55.583 46.1505 56.128 47.1719C56.673 48.1933 56.8323 49.3785 56.5765 50.5088C56.2139 52.2164 54.8952 54.051 52.8563 54.051C52.7669 54.051 52.6769 54.0471 52.5859 54.0401L52.5534 54.0373L52.5214 54.0308C52.1127 53.943 51.7102 53.828 51.3165 53.6868L50.7838 53.599L50.4971 53.774L50.4749 53.7849C50.2935 53.9004 50.1001 53.9956 49.8982 54.069C49.6073 54.1828 49.2981 54.2419 48.986 54.2434C48.4057 54.2443 47.8471 54.0211 47.4257 53.6197C47.4224 53.6175 47.3216 53.5674 47.3216 53.5674L47.2848 53.5074C47.2503 53.4851 47.2175 53.4603 47.1867 53.4333L46.8398 53.1716L46.2404 53.1874C46.0736 53.192 45.909 53.2271 45.7547 53.291C45.0441 53.6476 44.3824 54.0955 43.7863 54.6234C43.5483 54.817 43.2963 55.0187 43.0275 55.2144C42.9766 55.2596 42.9224 55.3009 42.8654 55.3382C41.8403 56.1162 40.6149 56.5822 39.3344 56.681C39.1849 56.6913 39.038 56.6957 38.8911 56.6957Z" fill="white"/>
<path d="M53.9355 45.3958C53.9125 45.429 53.8863 45.46 53.8573 45.4884C53.8096 45.5502 53.7574 45.6084 53.701 45.6627L53.5391 45.8316C53.3182 46.0443 53.0771 46.2359 52.8188 46.4037C52.696 46.4909 52.5564 46.5563 52.4224 46.6325C52.2864 46.6985 52.1465 46.7567 52.0036 46.8069C51.8348 46.8748 51.6587 46.9242 51.4787 46.954C51.3614 46.9812 51.2442 47.003 51.127 47.0194C51.1081 47.0229 51.0888 47.0225 51.0701 47.0182C51.0515 47.0139 51.0339 47.0059 51.0187 46.9946C51.0034 46.9833 50.9907 46.969 50.9815 46.9526C50.9723 46.9362 50.9667 46.9181 50.965 46.8995C50.958 46.865 50.9644 46.8291 50.9829 46.7989C51.0015 46.7687 51.0309 46.7463 51.0655 46.7361H51.0767C51.2427 46.6894 51.4051 46.6311 51.5625 46.5617C51.6564 46.5236 51.7477 46.48 51.8361 46.431C51.9589 46.371 52.065 46.2893 52.1822 46.2185C52.2932 46.141 52.3994 46.0573 52.5005 45.9678C52.7031 45.7929 52.8882 45.5995 53.0533 45.3903L53.1705 45.2269C53.211 45.1727 53.2483 45.1163 53.2823 45.058C53.3157 45.0035 53.3493 44.949 53.3828 44.8891C53.3995 44.8673 53.4106 44.8346 53.4274 44.8128C53.6228 43.5485 53.3936 42.2564 52.7741 41.1297C52.6307 40.8727 52.4644 40.6284 52.2772 40.3997C51.8605 39.8837 51.3377 39.4586 50.7424 39.1518C50.1472 38.8449 49.4926 38.6631 48.821 38.6181C48.7729 38.6117 48.7244 38.6081 48.6758 38.6072C48.6161 38.6017 48.5584 38.5834 48.5068 38.5536C48.4553 38.5238 48.4111 38.4832 48.3774 38.4348C48.3438 38.3863 48.3216 38.3313 48.3124 38.2735C48.3031 38.2157 48.3071 38.1566 48.3241 38.1005C48.5467 37.1566 48.5442 36.1754 48.3167 35.2327C48.0892 34.2899 47.6428 33.4108 47.0119 32.663C46.4795 31.9843 45.8385 31.3938 45.1135 30.9141C43.7269 30.0142 42.1238 29.4827 40.4624 29.3722C39.974 29.333 39.4835 29.3239 38.994 29.345H38.9213C37.8565 29.193 36.7745 29.1967 35.7108 29.3559C33.99 29.5899 32.3821 30.3269 31.0988 31.4698C30.9369 31.6115 30.7861 31.764 30.6354 31.922C29.9542 32.5987 29.4379 33.4163 29.1247 34.3142C28.8116 35.2121 28.7095 36.1672 28.8263 37.1089C29.4833 37.8031 30.2771 38.3609 31.1602 38.7488C31.3333 38.8196 31.5064 38.8796 31.6851 38.9341C31.9869 39.0318 32.2971 39.1029 32.6119 39.1465C33.1193 39.2111 33.6327 39.2184 34.1418 39.1683C34.1802 39.1651 34.2183 39.1763 34.2483 39.1998C34.2784 39.2233 34.2979 39.2572 34.303 39.2945C34.308 39.3317 34.2981 39.3694 34.2754 39.3997C34.2526 39.43 34.2188 39.4505 34.1809 39.4571C33.6533 39.5569 33.1149 39.5917 32.5784 39.5606C32.2929 39.5443 32.0091 39.506 31.7297 39.4462C31.4737 39.4019 31.2217 39.3382 30.9759 39.2555C30.4551 39.0818 29.9567 38.8496 29.4907 38.5636C29.0782 38.3023 28.6879 38.009 28.3238 37.6864C27.9605 37.6768 27.5973 37.706 27.2405 37.7736C26.2664 37.9657 25.377 38.4471 24.6945 39.152C24.1149 39.7532 23.685 40.4765 23.4382 41.2659C23.218 41.9434 23.1234 42.6537 23.159 43.3636C23.4433 43.7091 23.7653 44.0233 24.1193 44.3007C24.5814 44.6661 25.1099 44.9433 25.6772 45.1179C26.1943 45.2716 26.7337 45.3415 27.274 45.325C27.5452 45.3224 27.8158 45.3005 28.0837 45.2596L28.1842 45.2432L28.2958 45.2214C28.3014 45.2214 28.307 45.216 28.3182 45.216C28.3796 45.2051 28.4578 45.1997 28.5303 45.1888C29.035 45.1222 29.5487 45.1919 30.0156 45.3903C30.3245 45.5274 30.6033 45.7217 30.8364 45.9624L30.9871 46.115C31.0318 46.1586 31.0765 46.2022 31.1267 46.2457C31.2227 46.3314 31.3254 46.4097 31.4338 46.48C31.6436 46.625 31.8753 46.7372 32.1206 46.8124C32.2066 46.8392 32.2943 46.8611 32.383 46.8777C32.5409 46.9096 32.7021 46.9224 32.8632 46.9159C33.1229 46.9007 33.3779 46.8417 33.617 46.7415C33.8659 46.6315 34.1003 46.4925 34.3149 46.3275C34.5397 46.1565 34.7507 45.9689 34.9459 45.7663C34.974 45.7388 35.0121 45.7231 35.0519 45.7227C35.0899 45.7243 35.1258 45.7399 35.1524 45.7663C35.1777 45.7911 35.1931 45.8238 35.1962 45.8587C35.1993 45.8935 35.1897 45.9283 35.1692 45.957C34.8204 46.4578 34.3653 46.8796 33.8347 47.1938C33.5553 47.3549 33.246 47.4604 32.9246 47.5043C32.7658 47.528 32.6048 47.5353 32.4444 47.5261C32.2772 47.5181 32.1109 47.4962 31.9475 47.4607L31.8302 47.4335L31.713 47.4008C31.6348 47.3735 31.5622 47.3518 31.4841 47.3191C31.3335 47.2592 31.1879 47.1882 31.0485 47.1066C30.9077 47.0258 30.7733 46.9347 30.6465 46.8342C30.5795 46.7906 30.5181 46.7361 30.4567 46.687C30.3953 46.6326 30.3338 46.5726 30.2948 46.5345C29.9427 46.2008 29.4829 45.9967 28.9938 45.957C28.869 45.9524 28.744 45.9561 28.6197 45.9679C28.5527 45.9788 28.5024 45.9842 28.4298 45.9951H28.4243L28.3238 46.0169L28.2121 46.0333C27.9054 46.0803 27.5956 46.1058 27.2852 46.1095C26.6655 46.1272 26.0469 46.0462 25.4538 45.8698C25.0739 45.7544 24.7086 45.5972 24.365 45.4012C24.1628 45.2912 23.9687 45.1674 23.7843 45.0307C23.3612 44.7158 22.9754 44.3558 22.6341 43.9574C21.717 44.1836 20.9061 44.7077 20.3347 45.4435C19.7634 46.1792 19.4657 47.0828 19.4906 48.0055C19.5073 49.8362 20.585 51.4107 22.0478 51.7594C22.3365 51.8237 22.6383 51.8009 22.9133 51.6941C23.4045 51.5292 23.9275 51.4752 24.4432 51.536L23.3376 50.3211C23.311 50.2922 23.2973 50.2541 23.2994 50.2153C23.3014 50.1765 23.3192 50.1401 23.3488 50.114C23.3745 50.0904 23.4084 50.0772 23.4437 50.0772C23.479 50.0772 23.513 50.0904 23.5387 50.114L25.7051 51.9392L26.0178 52.2007C26.1381 52.2891 26.2519 52.3856 26.3583 52.4895H26.3639C27.2156 53.3415 28.3331 53.8934 29.541 54.0586C30.6941 54.1965 31.8642 54.0388 32.9358 53.601C33.2333 53.4879 33.5241 53.3588 33.8068 53.2141L33.416 51.6559C33.4062 51.6184 33.4118 51.5786 33.4316 51.545C33.4514 51.5115 33.4839 51.4867 33.522 51.4761C33.5547 51.4687 33.5889 51.4722 33.6193 51.4861C33.6496 51.4999 33.6744 51.5232 33.6896 51.5524L34.5941 53.225C34.5997 53.2305 34.6053 53.2359 34.6053 53.2414C35.011 54.0112 35.6377 54.6492 36.4087 55.0775C37.2046 55.5176 38.0967 55.766 39.0107 55.8021C39.2563 55.8139 39.5024 55.8121 39.7478 55.7967C40.9391 55.7041 42.0784 55.2806 43.0309 54.5762C43.0816 54.543 43.1301 54.5066 43.1761 54.4673C43.4385 54.282 43.6841 54.0913 43.9187 53.9061C44.5574 53.356 45.2692 52.8923 46.0348 52.5277C46.253 52.4401 46.4858 52.3921 46.7216 52.386L46.0851 51.6723C46.0585 51.6433 46.0448 51.6053 46.0469 51.5665C46.049 51.5277 46.0667 51.4913 46.0963 51.4652C46.1214 51.4433 46.1537 51.4308 46.1874 51.4298C46.2211 51.4288 46.2541 51.4394 46.2806 51.4598L46.9058 51.9174L48.0449 52.751C48.063 52.7685 48.0837 52.7832 48.1063 52.7946L48.2012 52.8654C48.2068 52.8654 48.2068 52.8763 48.218 52.8818C48.2459 52.909 48.2793 52.9254 48.3073 52.9526C48.5594 53.1829 48.8748 53.3365 49.2149 53.3945C49.5551 53.4526 49.9052 53.4126 50.2224 53.2795C50.3969 53.2185 50.5637 53.138 50.7194 53.0398L50.7528 53.0234L52.3776 52.0591C52.4118 52.0407 52.452 52.0361 52.4896 52.0463C52.5271 52.0564 52.5591 52.0806 52.5786 52.1136C52.5951 52.1423 52.6013 52.1756 52.5963 52.2081C52.5912 52.2407 52.5752 52.2707 52.5508 52.2934L51.9421 52.8818C51.9708 52.8858 51.9989 52.8931 52.0259 52.9036C52.398 53.0333 52.7785 53.1388 53.1649 53.2196C54.9516 53.3612 56.2358 51.8139 56.5876 50.2067C56.8184 49.2273 56.6767 48.1995 56.1888 47.3145C55.7009 46.4295 54.9002 45.7476 53.9355 45.3958ZM39.9431 36.9672H39.9375C39.9177 36.9687 39.8978 36.9663 39.8789 36.9603C39.86 36.9543 39.8425 36.9446 39.8275 36.932C39.8124 36.9193 39.8001 36.9039 39.7912 36.8865C39.7823 36.8692 39.777 36.8503 39.7756 36.831C39.7707 36.8049 39.7739 36.7779 39.7849 36.7537C39.7959 36.7294 39.814 36.7089 39.8371 36.6948C39.9764 36.5959 40.1285 36.5153 40.2893 36.455C40.69 36.2933 41.1247 36.2279 41.5568 36.2643C41.8638 36.2943 42.1648 36.3677 42.4501 36.4823C42.8947 36.6542 43.2954 36.9189 43.6243 37.2576C43.9531 37.5964 44.2022 38.0012 44.3541 38.4437C44.4151 38.6155 44.46 38.7924 44.4881 38.9722V38.9831C44.5262 39.2154 44.5392 39.4509 44.5272 39.6859C44.6208 39.662 44.716 39.6438 44.8119 39.6314C45.1478 39.582 45.491 39.6215 45.8058 39.7458C45.8478 39.7617 45.8888 39.7799 45.9287 39.8003L46.0459 39.8711C46.1245 39.9196 46.1976 39.9762 46.2637 40.04C46.3291 40.1021 46.3889 40.1695 46.4424 40.2416C46.4871 40.3125 46.5429 40.3833 46.582 40.4596C46.658 40.6118 46.7196 40.7705 46.7662 40.9336C46.8542 40.914 46.944 40.903 47.0342 40.9009C47.2962 40.8919 47.5566 40.9442 47.7937 41.0534C48.0323 41.1742 48.2243 41.3673 48.3409 41.6037C48.352 41.631 48.3688 41.6582 48.3799 41.6854V41.6909C48.3958 41.7141 48.4071 41.74 48.4134 41.7672C48.4371 41.8213 48.454 41.878 48.4637 41.9361C48.4945 42.0448 48.5151 42.156 48.5251 42.2684C48.5275 42.2878 48.5258 42.3073 48.5203 42.3261C48.5148 42.3448 48.5056 42.3622 48.4931 42.3774C48.4806 42.3927 48.4652 42.4053 48.4477 42.4146C48.4302 42.424 48.411 42.4298 48.3911 42.4319C48.3694 42.4347 48.3473 42.4322 48.3268 42.4246C48.3063 42.417 48.2881 42.4045 48.2738 42.3883C48.2615 42.3779 48.252 42.3649 48.2459 42.3501L48.2404 42.3392C48.1611 42.1747 48.0577 42.0224 47.9333 41.887C47.8297 41.78 47.6954 41.706 47.548 41.6746C47.3995 41.6505 47.2476 41.656 47.1014 41.6909C46.945 41.7236 46.7775 41.7672 46.5933 41.7944L46.5821 41.7999C46.5322 41.8137 46.4801 41.8177 46.4286 41.8117C46.3771 41.8058 46.3274 41.7899 46.2822 41.7651C46.2371 41.7403 46.1974 41.707 46.1655 41.6671C46.1336 41.6273 46.1101 41.5816 46.0963 41.5329C46.0899 41.5153 46.0862 41.497 46.0852 41.4784C46.0571 41.2557 45.993 41.0387 45.8953 40.8355C45.817 40.6706 45.6801 40.539 45.51 40.465C45.3148 40.3983 45.1058 40.3796 44.9014 40.4105C44.7159 40.4354 44.5328 40.4755 44.3542 40.5304C44.2984 40.5522 44.2481 40.5685 44.1979 40.5849C44.151 40.6026 44.101 40.611 44.0507 40.6096C44.0005 40.6082 43.951 40.597 43.9052 40.5767C43.8595 40.5564 43.8183 40.5274 43.7842 40.4914C43.7501 40.4554 43.7237 40.4131 43.7065 40.3669C43.6864 40.311 43.6769 40.2519 43.6786 40.1926L43.6842 40.149C43.7369 39.6735 43.6855 39.1926 43.5334 38.7379C43.3719 38.3008 43.0968 37.9122 42.735 37.6101C42.5497 37.4623 42.3473 37.3361 42.132 37.2341C41.914 37.1381 41.6854 37.0668 41.4508 37.0217C41.0628 36.9489 40.6671 36.9233 40.2727 36.9454C40.1665 36.9508 40.0547 36.9563 39.9431 36.9672V36.9672ZM48.8153 45.6137C48.4735 45.9422 48.0908 46.2278 47.6764 46.4636C47.4453 46.6031 47.2046 46.7269 46.9561 46.8341C46.2679 47.1327 45.5341 47.3186 44.784 47.3844C44.4389 47.4171 44.092 47.428 43.7455 47.4171C43.3487 47.4065 42.9531 47.3683 42.5618 47.3027C41.835 47.1919 41.1245 46.9961 40.4456 46.7197C40.4093 46.7044 40.3804 46.6761 40.3648 46.6406C40.3492 46.6052 40.3482 46.5652 40.3619 46.529C40.372 46.5006 40.3908 46.476 40.4157 46.4584C40.4407 46.4408 40.4707 46.4313 40.5015 46.431H40.5182C41.2273 46.5181 41.9364 46.6053 42.6288 46.6489C43.0252 46.6652 43.4216 46.6761 43.8124 46.6598C44.114 46.6543 44.4099 46.638 44.7059 46.6053C45.7684 46.4982 46.8057 46.2222 47.7768 45.788C48.0672 45.6627 48.3575 45.5211 48.6479 45.374C48.6668 45.3642 48.6878 45.3586 48.7092 45.3576C48.7372 45.3576 48.7646 45.3653 48.7882 45.3797C48.8119 45.3942 48.831 45.4148 48.8432 45.4394C48.8584 45.4675 48.8639 45.4996 48.8589 45.531C48.8539 45.5624 48.8386 45.5914 48.8154 45.6137L48.8153 45.6137Z" fill="#F896A6"/>
<path d="M47.836 42.3566C47.8381 42.376 47.8367 42.3956 47.8316 42.4144C47.8266 42.4332 47.8182 42.4507 47.8069 42.466C47.7955 42.4812 47.7814 42.4939 47.7655 42.5033C47.7496 42.5127 47.732 42.5186 47.714 42.5206C47.6942 42.5234 47.674 42.5209 47.6554 42.5133C47.6367 42.5057 47.6201 42.4931 47.6071 42.4768C47.5959 42.4665 47.5872 42.4533 47.5817 42.4386L47.5766 42.4276C47.5045 42.2625 47.4102 42.1096 47.2969 41.9738C47.2025 41.8664 47.0802 41.7921 46.946 41.7605C46.8107 41.7363 46.6723 41.7419 46.5391 41.7769C46.3967 41.8097 46.2441 41.8535 46.0763 41.8808L46.0661 41.8863C46.0207 41.9001 45.9732 41.9042 45.9263 41.8982C45.8794 41.8922 45.8341 41.8763 45.793 41.8514C45.7518 41.8265 45.7157 41.7931 45.6866 41.7531C45.6575 41.7131 45.6361 41.6673 45.6236 41.6183C45.6178 41.6007 45.6144 41.5823 45.6134 41.5636C45.5878 41.3401 45.5295 41.1223 45.4405 40.9184C45.3692 40.7529 45.2445 40.6208 45.0895 40.5465C44.9117 40.4796 44.7213 40.4608 44.5352 40.4919C44.3662 40.5169 44.1994 40.5571 44.0367 40.6122C43.9859 40.634 43.94 40.6504 43.8943 40.6668C43.8516 40.6846 43.806 40.6931 43.7603 40.6917C43.7145 40.6903 43.6694 40.6791 43.6277 40.6587C43.5861 40.6383 43.5486 40.6092 43.5175 40.573C43.4864 40.5369 43.4624 40.4944 43.4467 40.4481C43.4284 40.3919 43.4198 40.3326 43.4213 40.2731L43.4264 40.2294C43.4744 39.7522 43.4276 39.2694 43.2891 38.8131C43.1419 38.3744 42.8913 37.9844 42.5618 37.6812C42.393 37.5328 42.2086 37.4062 42.0125 37.3038C41.8139 37.2075 41.6057 37.1359 41.392 37.0906C41.0386 37.0176 40.6781 36.9919 40.3189 37.014C40.2222 37.0195 40.1204 37.025 40.0187 37.0359H40.0136C39.9956 37.0374 39.9775 37.0351 39.9603 37.029C39.9431 37.0229 39.9271 37.0133 39.9134 37.0006C39.8997 36.9878 39.8885 36.9723 39.8804 36.955C39.8723 36.9376 39.8674 36.9186 39.8662 36.8992C39.8617 36.873 39.8647 36.846 39.8746 36.8216C39.8846 36.7972 39.9012 36.7766 39.9222 36.7625C40.0491 36.6633 40.1876 36.5824 40.3341 36.5219C40.6991 36.3596 41.0951 36.2939 41.4886 36.3305C41.7683 36.3606 42.0425 36.4342 42.3024 36.5492C42.7074 36.7218 43.0724 36.9874 43.3719 37.3274C43.6715 37.6675 43.8984 38.0737 44.0368 38.5178C44.0924 38.6903 44.1332 38.8678 44.1588 39.0482V39.0592C44.1935 39.2923 44.2054 39.5288 44.1944 39.7646C44.2797 39.7406 44.3664 39.7223 44.4538 39.7099C44.7597 39.6603 45.0724 39.6999 45.3591 39.8247C45.3974 39.8407 45.4347 39.8589 45.471 39.8794L45.5778 39.9505C45.6495 39.9991 45.716 40.056 45.7763 40.12C45.8358 40.1823 45.8903 40.25 45.939 40.3223C45.9797 40.3934 46.0306 40.4645 46.0662 40.5411C46.1353 40.6939 46.1915 40.8531 46.234 41.0168C46.3141 40.9971 46.3959 40.9862 46.4781 40.984C46.7168 40.975 46.9539 41.0275 47.1699 41.1371C47.3872 41.2584 47.5621 41.4522 47.6683 41.6894C47.6785 41.7168 47.6937 41.7441 47.7039 41.7714V41.7769C47.7183 41.8002 47.7286 41.8262 47.7344 41.8535C47.756 41.9078 47.7714 41.9647 47.7802 42.023C47.8082 42.1321 47.8269 42.2438 47.836 42.3566Z" fill="white"/>
<path d="M48.6756 45.5091C48.3197 45.9322 47.9213 46.3 47.4897 46.6038C47.2491 46.7834 46.9986 46.9428 46.7398 47.0809C46.0233 47.4654 45.2592 47.7049 44.4783 47.7896C44.119 47.8317 43.7578 47.8457 43.3971 47.8317C42.9838 47.8181 42.5719 47.7688 42.1645 47.6844C41.4078 47.5416 40.6681 47.2895 39.9613 46.9336C39.9235 46.9139 39.8934 46.8774 39.8772 46.8317C39.8609 46.7861 39.8598 46.7346 39.8741 46.688C39.8846 46.6514 39.9042 46.6196 39.9302 46.597C39.9562 46.5744 39.9874 46.5621 40.0194 46.5617H40.0369C40.7752 46.6739 41.5135 46.7862 42.2343 46.8423C42.6471 46.8634 43.0598 46.8774 43.4667 46.8564C43.7807 46.8494 44.0888 46.8283 44.3969 46.7862C45.5032 46.6483 46.5833 46.2928 47.5943 45.7337C47.8966 45.5723 48.1989 45.3899 48.5013 45.2004C48.521 45.1878 48.5428 45.1806 48.5651 45.1794C48.5942 45.1794 48.6227 45.1892 48.6474 45.2078C48.6721 45.2264 48.6919 45.253 48.7047 45.2846C48.7205 45.3208 48.7262 45.3622 48.7209 45.4027C48.7157 45.4431 48.6998 45.4805 48.6756 45.5091Z" fill="white"/>
<path d="M34.5594 32.3614C34.9798 32.9079 35.5012 33.3789 36.0986 33.7519C39.5435 35.9025 42.6873 33.3127 43.2957 30.5855C44.0329 27.5614 40.9915 24.5043 38.1961 26.1531C35.051 26.4132 32.1386 29.2129 34.5594 32.3614Z" fill="#FD1254"/>
<path d="M39.6613 22.2159C39.2063 22.57 38.8049 22.973 38.4666 23.4153C38.1351 23.8505 37.9063 24.3387 37.7933 24.8517C37.6866 25.38 37.684 25.9203 37.7858 26.4493C37.8907 26.9986 38.0576 27.5375 38.284 28.0581L38.2849 28.0604C38.3334 28.1756 38.4475 28.2917 38.3807 28.3274C38.2677 28.3878 38.1729 28.3048 38.1168 28.2027C37.8186 27.6702 37.5815 27.1133 37.4091 26.5401C37.2303 25.9457 37.1692 25.3291 37.2285 24.7168C37.299 24.0898 37.5108 23.4812 37.8519 22.9258C38.1879 22.381 38.6024 21.8759 39.0854 21.4228C39.3158 21.2016 39.4067 21.2146 39.6606 21.4154C39.7825 21.5118 39.8554 21.6464 39.8634 21.7897C39.8714 21.933 39.8137 22.0732 39.7031 22.1794C39.6904 22.1916 39.6613 22.2159 39.6613 22.2159Z" fill="#602C27"/>
<path d="M39.8507 28.47C39.6994 28.6655 39.478 28.8335 39.2058 28.9593C38.9271 29.0889 38.6074 29.1749 38.271 29.2106C37.9427 29.2456 37.6076 29.2408 37.2819 29.1964C36.9674 29.1545 36.6647 29.0805 36.3848 28.9769C36.3596 28.9674 36.34 28.9525 36.3294 28.9346C36.3189 28.9168 36.3178 28.8971 36.3265 28.8788C36.3353 28.8605 36.3532 28.8447 36.3774 28.8341C36.4015 28.8235 36.4304 28.8187 36.4593 28.8205L36.462 28.8207C36.7655 28.8396 37.0563 28.8637 37.3421 28.8685C37.6195 28.877 37.8974 28.8655 38.171 28.8341C38.4365 28.8015 38.694 28.7451 38.9364 28.6665C39.1906 28.5804 39.4327 28.4794 39.6597 28.3648L39.6612 28.3641C39.6843 28.3529 39.7124 28.3472 39.741 28.3479C39.7696 28.3486 39.797 28.3556 39.8189 28.3678C39.8408 28.38 39.8558 28.3967 39.8615 28.4152C39.8673 28.4338 39.8635 28.4531 39.8507 28.47H39.8507Z" fill="#602C27"/>
</g>
<defs>
<clipPath id="clip0_979_8978">
<rect width="163" height="70" fill="white"/>
</clipPath>
</defs>
</svg>
