<svg width="11" height="11" viewBox="0 0 11 11" fill="none" xmlns="http://www.w3.org/2000/svg">
<g clip-path="url(#clip0_1165_238)">
<path d="M2.96582 8.18495H5.13623L10.5511 2.65961C10.8405 2.36431 11.0001 1.97109 11.0001 1.55228C11.0001 1.13346 10.8406 0.740512 10.5514 0.445468C10.2744 0.1623 9.87897 0 9.46646 0C9.10825 0 8.76324 0.122187 8.49737 0.339643L8.49091 0.333045L2.96582 5.9708V8.18495ZM8.99032 1.06802C9.24352 0.809654 9.68784 0.809654 9.94104 1.06802C10.1976 1.32981 10.203 1.75232 9.95733 2.02097L9.2805 2.71213L8.32978 1.74202L8.99032 1.06802ZM3.82731 6.33525L7.71968 2.36351L8.6704 3.33362L4.77803 7.30536H3.82731V6.33525Z" fill="#C39F54"/>
</g>
<defs>
<clipPath id="clip0_1165_238">
<rect width="11" height="11" fill="white"/>
</clipPath>
</defs>
</svg>
